<?xml version="1.0" encoding="UTF-8" standalone="no"?>
<!DOCTYPE svg PUBLIC "-//W3C//DTD SVG 1.1//EN"
 "http://www.w3.org/Graphics/SVG/1.1/DTD/svg11.dtd">
<!-- Generated by graphviz version 2.40.1 (20161225.0304)
 -->
<!-- Title: dependencies Pages: 1 -->
<svg width="739pt" height="284pt"
 viewBox="0.00 0.00 739.00 284.00" xmlns="http://www.w3.org/2000/svg" xmlns:xlink="http://www.w3.org/1999/xlink">
<g id="graph0" class="graph" transform="scale(1 1) rotate(0) translate(4 280)">
<title>dependencies</title>
<polygon fill="#ffffff" stroke="transparent" points="-4,4 -4,-280 735,-280 735,4 -4,4"/>
<text text-anchor="start" x="344.5091" y="-42.4" font-family="sans-serif" font-weight="bold" font-size="14.00" fill="#000000">Legend</text>
<polygon fill="#ffffb3" stroke="transparent" points="131.5,-10 131.5,-30 151.5,-30 151.5,-10 131.5,-10"/>
<text text-anchor="start" x="155.129" y="-15.4" font-family="sans-serif" font-size="14.00" fill="#000000"> &#160;Declarations</text>
<polygon fill="#8dd3c7" stroke="transparent" points="244.5,-10 244.5,-30 264.5,-30 264.5,-10 244.5,-10"/>
<text text-anchor="start" x="268.2251" y="-15.4" font-family="sans-serif" font-size="14.00" fill="#000000"> &#160;Module</text>
<polygon fill="#80b1d3" stroke="transparent" points="330.5,-10 330.5,-30 350.5,-30 350.5,-10 330.5,-10"/>
<text text-anchor="start" x="354.2812" y="-15.4" font-family="sans-serif" font-size="14.00" fill="#000000"> &#160;Bootstrap</text>
<polygon fill="#fdb462" stroke="transparent" points="427.5,-10 427.5,-30 447.5,-30 447.5,-10 427.5,-10"/>
<text text-anchor="start" x="451.1732" y="-15.4" font-family="sans-serif" font-size="14.00" fill="#000000"> &#160;Providers</text>
<polygon fill="#fb8072" stroke="transparent" points="523.5,-10 523.5,-30 543.5,-30 543.5,-10 523.5,-10"/>
<text text-anchor="start" x="547.2258" y="-15.4" font-family="sans-serif" font-size="14.00" fill="#000000"> &#160;Exports</text>
<g id="clust1" class="cluster">
<title>cluster_AppModule</title>
<polygon fill="none" stroke="#000000" stroke-dasharray="1,5" points="8,-70 8,-268 723,-268 723,-70 8,-70"/>
</g>
<g id="clust2" class="cluster">
<title>cluster_AppModule_declarations</title>
<polygon fill="none" stroke="#000000" points="168,-78 168,-130 715,-130 715,-78 168,-78"/>
</g>
<g id="clust7" class="cluster">
<title>cluster_AppModule_imports</title>
<polygon fill="none" stroke="#000000" points="16,-78 16,-130 160,-130 160,-78 16,-78"/>
</g>
<g id="clust8" class="cluster">
<title>cluster_AppModule_exports</title>
<polygon fill="none" stroke="#000000" points="294,-208 294,-260 418,-260 418,-208 294,-208"/>
</g>
<!-- AppComponent -->
<g id="node1" class="node">
<title>AppComponent</title>
<polygon fill="#ffffb3" stroke="#000000" points="706.9399,-122 601.0601,-122 601.0601,-86 706.9399,-86 706.9399,-122"/>
<text text-anchor="middle" x="654" y="-99.8" font-family="Times,serif" font-size="14.00" fill="#000000">AppComponent</text>
</g>
<!-- AppModule -->
<g id="node5" class="node">
<title>AppModule</title>
<polygon fill="#8dd3c7" stroke="#000000" points="397.6571,-187 394.6571,-191 373.6571,-191 370.6571,-187 314.3429,-187 314.3429,-151 397.6571,-151 397.6571,-187"/>
<text text-anchor="middle" x="356" y="-164.8" font-family="Times,serif" font-size="14.00" fill="#000000">AppModule</text>
</g>
<!-- AppComponent&#45;&gt;AppModule -->
<g id="edge1" class="edge">
<title>AppComponent&#45;&gt;AppModule</title>
<path fill="none" stroke="#000000" d="M654,-122.2843C654,-143.3211 654,-175 654,-175 654,-175 407.7494,-175 407.7494,-175"/>
<polygon fill="#000000" stroke="#000000" points="407.7494,-171.5001 397.7494,-175 407.7494,-178.5001 407.7494,-171.5001"/>
</g>
<!-- ControlpanelComponent -->
<g id="node2" class="node">
<title>ControlpanelComponent</title>
<polygon fill="#ffffb3" stroke="#000000" points="583.4312,-122 428.5688,-122 428.5688,-86 583.4312,-86 583.4312,-122"/>
<text text-anchor="middle" x="506" y="-99.8" font-family="Times,serif" font-size="14.00" fill="#000000">ControlpanelComponent</text>
</g>
<!-- ControlpanelComponent&#45;&gt;AppModule -->
<g id="edge2" class="edge">
<title>ControlpanelComponent&#45;&gt;AppModule</title>
<path fill="none" stroke="#000000" d="M506,-122.0225C506,-139.3734 506,-163 506,-163 506,-163 407.7834,-163 407.7834,-163"/>
<polygon fill="#000000" stroke="#000000" points="407.7834,-159.5001 397.7834,-163 407.7833,-166.5001 407.7834,-159.5001"/>
</g>
<!-- FieldComponent -->
<g id="node3" class="node">
<title>FieldComponent</title>
<polygon fill="#ffffb3" stroke="#000000" points="411.1109,-122 300.8891,-122 300.8891,-86 411.1109,-86 411.1109,-122"/>
<text text-anchor="middle" x="356" y="-99.8" font-family="Times,serif" font-size="14.00" fill="#000000">FieldComponent</text>
</g>
<!-- FieldComponent&#45;&gt;AppModule -->
<g id="edge3" class="edge">
<title>FieldComponent&#45;&gt;AppModule</title>
<path fill="none" stroke="#000000" d="M356,-122.1061C356,-122.1061 356,-140.991 356,-140.991"/>
<polygon fill="#000000" stroke="#000000" points="352.5001,-140.9909 356,-150.991 359.5001,-140.991 352.5001,-140.9909"/>
</g>
<!-- TreeComponent -->
<g id="node4" class="node">
<title>TreeComponent</title>
<polygon fill="#ffffb3" stroke="#000000" points="282.4748,-122 175.5252,-122 175.5252,-86 282.4748,-86 282.4748,-122"/>
<text text-anchor="middle" x="229" y="-99.8" font-family="Times,serif" font-size="14.00" fill="#000000">TreeComponent</text>
</g>
<!-- TreeComponent&#45;&gt;AppModule -->
<g id="edge4" class="edge">
<title>TreeComponent&#45;&gt;AppModule</title>
<path fill="none" stroke="#000000" d="M229,-122.0225C229,-139.3734 229,-163 229,-163 229,-163 304.0635,-163 304.0635,-163"/>
<polygon fill="#000000" stroke="#000000" points="304.0635,-166.5001 314.0635,-163 304.0634,-159.5001 304.0635,-166.5001"/>
</g>
<!-- AppComponent  -->
<g id="node7" class="node">
<title>AppComponent </title>
<polygon fill="#fb8072" stroke="#000000" points="410.439,-252 301.561,-252 301.561,-216 410.439,-216 410.439,-252"/>
<text text-anchor="middle" x="356" y="-229.8" font-family="Times,serif" font-size="14.00" fill="#000000">AppComponent </text>
</g>
<!-- AppModule&#45;&gt;AppComponent  -->
<g id="edge6" class="edge">
<title>AppModule&#45;&gt;AppComponent </title>
<path fill="none" stroke="#000000" stroke-dasharray="5,2" d="M342.0573,-187.1061C342.0573,-187.1061 342.0573,-205.991 342.0573,-205.991"/>
<polygon fill="#000000" stroke="#000000" points="338.5574,-205.9909 342.0573,-215.991 345.5574,-205.991 338.5574,-205.9909"/>
</g>
<!-- AppModule&#45;&gt;AppComponent  -->
<g id="edge7" class="edge">
<title>AppModule&#45;&gt;AppComponent </title>
<path fill="none" stroke="#000000" stroke-dasharray="1,5" d="M369.9427,-187.1061C369.9427,-187.1061 369.9427,-205.991 369.9427,-205.991"/>
<polygon fill="#000000" stroke="#000000" points="366.4428,-205.9909 369.9427,-215.991 373.4428,-205.991 366.4428,-205.9909"/>
</g>
<!-- AppRoutingModule -->
<g id="node6" class="node">
<title>AppRoutingModule</title>
<polygon fill="#8dd3c7" stroke="#000000" points="152.2744,-122 149.2744,-126 128.2744,-126 125.2744,-122 23.7256,-122 23.7256,-86 152.2744,-86 152.2744,-122"/>
<text text-anchor="middle" x="88" y="-99.8" font-family="Times,serif" font-size="14.00" fill="#000000">AppRoutingModule</text>
</g>
<!-- AppRoutingModule&#45;&gt;AppModule -->
<g id="edge5" class="edge">
<title>AppRoutingModule&#45;&gt;AppModule</title>
<path fill="none" stroke="#000000" d="M88,-122.2843C88,-143.3211 88,-175 88,-175 88,-175 304.125,-175 304.125,-175"/>
<polygon fill="#000000" stroke="#000000" points="304.125,-178.5001 314.125,-175 304.125,-171.5001 304.125,-178.5001"/>
</g>
</g>
</svg>
