<?xml version="1.0" encoding="UTF-8" standalone="no"?>
<!DOCTYPE svg PUBLIC "-//W3C//DTD SVG 1.1//EN"
 "http://www.w3.org/Graphics/SVG/1.1/DTD/svg11.dtd">
<!-- Generated by graphviz version 2.40.1 (20161225.0304)
 -->
<!-- Title: dependencies Pages: 1 -->
<svg width="2056pt" height="284pt"
 viewBox="0.00 0.00 2056.00 284.00" xmlns="http://www.w3.org/2000/svg" xmlns:xlink="http://www.w3.org/1999/xlink">
<g id="graph0" class="graph" transform="scale(1 1) rotate(0) translate(4 280)">
<title>dependencies</title>
<polygon fill="#ffffff" stroke="transparent" points="-4,4 -4,-280 2052,-280 2052,4 -4,4"/>
<text text-anchor="start" x="1003.0091" y="-42.4" font-family="sans-serif" font-weight="bold" font-size="14.00" fill="#000000">Legend</text>
<polygon fill="#ffffb3" stroke="transparent" points="790,-10 790,-30 810,-30 810,-10 790,-10"/>
<text text-anchor="start" x="813.629" y="-15.4" font-family="sans-serif" font-size="14.00" fill="#000000"> &#160;Declarations</text>
<polygon fill="#8dd3c7" stroke="transparent" points="903,-10 903,-30 923,-30 923,-10 903,-10"/>
<text text-anchor="start" x="926.7251" y="-15.4" font-family="sans-serif" font-size="14.00" fill="#000000"> &#160;Module</text>
<polygon fill="#80b1d3" stroke="transparent" points="989,-10 989,-30 1009,-30 1009,-10 989,-10"/>
<text text-anchor="start" x="1012.7812" y="-15.4" font-family="sans-serif" font-size="14.00" fill="#000000"> &#160;Bootstrap</text>
<polygon fill="#fdb462" stroke="transparent" points="1086,-10 1086,-30 1106,-30 1106,-10 1086,-10"/>
<text text-anchor="start" x="1109.6732" y="-15.4" font-family="sans-serif" font-size="14.00" fill="#000000"> &#160;Providers</text>
<polygon fill="#fb8072" stroke="transparent" points="1182,-10 1182,-30 1202,-30 1202,-10 1182,-10"/>
<text text-anchor="start" x="1205.7258" y="-15.4" font-family="sans-serif" font-size="14.00" fill="#000000"> &#160;Exports</text>
<g id="clust1" class="cluster">
<title>cluster_FormbuilderModule</title>
<polygon fill="none" stroke="#000000" stroke-dasharray="1,5" points="8,-70 8,-268 2040,-268 2040,-70 8,-70"/>
</g>
<g id="clust2" class="cluster">
<title>cluster_FormbuilderModule_declarations</title>
<polygon fill="none" stroke="#000000" points="368,-78 368,-130 2032,-130 2032,-78 368,-78"/>
</g>
<g id="clust15" class="cluster">
<title>cluster_FormbuilderModule_exports</title>
<polygon fill="none" stroke="#000000" points="294,-208 294,-260 1722,-260 1722,-208 294,-208"/>
</g>
<g id="clust17" class="cluster">
<title>cluster_FormbuilderModule_providers</title>
<polygon fill="none" stroke="#000000" points="16,-78 16,-130 360,-130 360,-78 16,-78"/>
</g>
<!-- AutocompleteComponent -->
<g id="node1" class="node">
<title>AutocompleteComponent</title>
<polygon fill="#ffffb3" stroke="#000000" points="2024.1456,-122 1863.8544,-122 1863.8544,-86 2024.1456,-86 2024.1456,-122"/>
<text text-anchor="middle" x="1944" y="-99.8" font-family="Times,serif" font-size="14.00" fill="#000000">AutocompleteComponent</text>
</g>
<!-- FormbuilderModule -->
<g id="node12" class="node">
<title>FormbuilderModule</title>
<polygon fill="#8dd3c7" stroke="#000000" points="1047.5408,-187 1044.5408,-191 1023.5408,-191 1020.5408,-187 918.4592,-187 918.4592,-151 1047.5408,-151 1047.5408,-187"/>
<text text-anchor="middle" x="983" y="-164.8" font-family="Times,serif" font-size="14.00" fill="#000000">FormbuilderModule</text>
</g>
<!-- AutocompleteComponent&#45;&gt;FormbuilderModule -->
<g id="edge1" class="edge">
<title>AutocompleteComponent&#45;&gt;FormbuilderModule</title>
<path fill="none" stroke="#000000" d="M1944,-122.308C1944,-142.1455 1944,-171 1944,-171 1944,-171 1057.5461,-171 1057.5461,-171"/>
<polygon fill="#000000" stroke="#000000" points="1057.5462,-167.5001 1047.5461,-171 1057.5461,-174.5001 1057.5462,-167.5001"/>
</g>
<!-- BaseFieldComponent -->
<g id="node2" class="node">
<title>BaseFieldComponent</title>
<polygon fill="#ffffb3" stroke="#000000" points="1845.8216,-122 1708.1784,-122 1708.1784,-86 1845.8216,-86 1845.8216,-122"/>
<text text-anchor="middle" x="1777" y="-99.8" font-family="Times,serif" font-size="14.00" fill="#000000">BaseFieldComponent</text>
</g>
<!-- BaseFieldComponent&#45;&gt;FormbuilderModule -->
<g id="edge2" class="edge">
<title>BaseFieldComponent&#45;&gt;FormbuilderModule</title>
<path fill="none" stroke="#000000" d="M1779.8666,-122.1686C1779.8666,-141.0898 1779.8666,-168 1779.8666,-168 1779.8666,-168 1057.8731,-168 1057.8731,-168"/>
<polygon fill="#000000" stroke="#000000" points="1057.8731,-164.5001 1047.8731,-168 1057.873,-171.5001 1057.8731,-164.5001"/>
</g>
<!-- CheckboxComponent -->
<g id="node3" class="node">
<title>CheckboxComponent</title>
<polygon fill="#ffffb3" stroke="#000000" points="1690.0982,-122 1551.9018,-122 1551.9018,-86 1690.0982,-86 1690.0982,-122"/>
<text text-anchor="middle" x="1621" y="-99.8" font-family="Times,serif" font-size="14.00" fill="#000000">CheckboxComponent</text>
</g>
<!-- CheckboxComponent&#45;&gt;FormbuilderModule -->
<g id="edge3" class="edge">
<title>CheckboxComponent&#45;&gt;FormbuilderModule</title>
<path fill="none" stroke="#000000" d="M1644.0164,-122.302C1644.0164,-140.2699 1644.0164,-165 1644.0164,-165 1644.0164,-165 1057.5846,-165 1057.5846,-165"/>
<polygon fill="#000000" stroke="#000000" points="1057.5846,-161.5001 1047.5846,-165 1057.5845,-168.5001 1057.5846,-161.5001"/>
</g>
<!-- DateInputComponent -->
<g id="node4" class="node">
<title>DateInputComponent</title>
<polygon fill="#ffffb3" stroke="#000000" points="1533.8104,-122 1396.1896,-122 1396.1896,-86 1533.8104,-86 1533.8104,-122"/>
<text text-anchor="middle" x="1465" y="-99.8" font-family="Times,serif" font-size="14.00" fill="#000000">DateInputComponent</text>
</g>
<!-- DateInputComponent&#45;&gt;FormbuilderModule -->
<g id="edge4" class="edge">
<title>DateInputComponent&#45;&gt;FormbuilderModule</title>
<path fill="none" stroke="#000000" d="M1441.4964,-122.0352C1441.4964,-138.7344 1441.4964,-161 1441.4964,-161 1441.4964,-161 1057.7189,-161 1057.7189,-161"/>
<polygon fill="#000000" stroke="#000000" points="1057.7189,-157.5001 1047.7189,-161 1057.7189,-164.5001 1057.7189,-157.5001"/>
</g>
<!-- FileInputComponent -->
<g id="node5" class="node">
<title>FileInputComponent</title>
<polygon fill="#ffffb3" stroke="#000000" points="1378.1624,-122 1245.8376,-122 1245.8376,-86 1378.1624,-86 1378.1624,-122"/>
<text text-anchor="middle" x="1312" y="-99.8" font-family="Times,serif" font-size="14.00" fill="#000000">FileInputComponent</text>
</g>
<!-- FileInputComponent&#45;&gt;FormbuilderModule -->
<g id="edge5" class="edge">
<title>FileInputComponent&#45;&gt;FormbuilderModule</title>
<path fill="none" stroke="#000000" d="M1309.037,-122.2819C1309.037,-137.9478 1309.037,-158 1309.037,-158 1309.037,-158 1057.8042,-158 1057.8042,-158"/>
<polygon fill="#000000" stroke="#000000" points="1057.8043,-154.5001 1047.8042,-158 1057.8042,-161.5001 1057.8043,-154.5001"/>
</g>
<!-- FormbuilderComponent -->
<g id="node6" class="node">
<title>FormbuilderComponent</title>
<polygon fill="#ffffb3" stroke="#000000" points="1227.8229,-122 1076.1771,-122 1076.1771,-86 1227.8229,-86 1227.8229,-122"/>
<text text-anchor="middle" x="1152" y="-99.8" font-family="Times,serif" font-size="14.00" fill="#000000">FormbuilderComponent</text>
</g>
<!-- FormbuilderComponent&#45;&gt;FormbuilderModule -->
<g id="edge6" class="edge">
<title>FormbuilderComponent&#45;&gt;FormbuilderModule</title>
<path fill="none" stroke="#000000" d="M1123.3063,-122.1243C1123.3063,-136.7832 1123.3063,-155 1123.3063,-155 1123.3063,-155 1057.8141,-155 1057.8141,-155"/>
<polygon fill="#000000" stroke="#000000" points="1057.8141,-151.5001 1047.8141,-155 1057.814,-158.5001 1057.8141,-151.5001"/>
</g>
<!-- RadiobuttonComponent -->
<g id="node7" class="node">
<title>RadiobuttonComponent</title>
<polygon fill="#ffffb3" stroke="#000000" points="1058.0561,-122 907.9439,-122 907.9439,-86 1058.0561,-86 1058.0561,-122"/>
<text text-anchor="middle" x="983" y="-99.8" font-family="Times,serif" font-size="14.00" fill="#000000">RadiobuttonComponent</text>
</g>
<!-- RadiobuttonComponent&#45;&gt;FormbuilderModule -->
<g id="edge7" class="edge">
<title>RadiobuttonComponent&#45;&gt;FormbuilderModule</title>
<path fill="none" stroke="#000000" d="M983,-122.1061C983,-122.1061 983,-140.991 983,-140.991"/>
<polygon fill="#000000" stroke="#000000" points="979.5001,-140.9909 983,-150.991 986.5001,-140.991 979.5001,-140.9909"/>
</g>
<!-- SelectComponent -->
<g id="node8" class="node">
<title>SelectComponent</title>
<polygon fill="#ffffb3" stroke="#000000" points="889.5409,-122 774.4591,-122 774.4591,-86 889.5409,-86 889.5409,-122"/>
<text text-anchor="middle" x="832" y="-99.8" font-family="Times,serif" font-size="14.00" fill="#000000">SelectComponent</text>
</g>
<!-- SelectComponent&#45;&gt;FormbuilderModule -->
<g id="edge8" class="edge">
<title>SelectComponent&#45;&gt;FormbuilderModule</title>
<path fill="none" stroke="#000000" d="M850.0951,-122.1243C850.0951,-136.7832 850.0951,-155 850.0951,-155 850.0951,-155 908.1049,-155 908.1049,-155"/>
<polygon fill="#000000" stroke="#000000" points="908.105,-158.5001 918.1049,-155 908.1049,-151.5001 908.105,-158.5001"/>
</g>
<!-- SliderComponent -->
<g id="node9" class="node">
<title>SliderComponent</title>
<polygon fill="#ffffb3" stroke="#000000" points="756.2716,-122 641.7284,-122 641.7284,-86 756.2716,-86 756.2716,-122"/>
<text text-anchor="middle" x="699" y="-99.8" font-family="Times,serif" font-size="14.00" fill="#000000">SliderComponent</text>
</g>
<!-- SliderComponent&#45;&gt;FormbuilderModule -->
<g id="edge9" class="edge">
<title>SliderComponent&#45;&gt;FormbuilderModule</title>
<path fill="none" stroke="#000000" d="M745.179,-122.2819C745.179,-137.9478 745.179,-158 745.179,-158 745.179,-158 908.3285,-158 908.3285,-158"/>
<polygon fill="#000000" stroke="#000000" points="908.3285,-161.5001 918.3285,-158 908.3285,-154.5001 908.3285,-161.5001"/>
</g>
<!-- TextInputComponent -->
<g id="node10" class="node">
<title>TextInputComponent</title>
<polygon fill="#ffffb3" stroke="#000000" points="623.0422,-122 486.9578,-122 486.9578,-86 623.0422,-86 623.0422,-122"/>
<text text-anchor="middle" x="555" y="-99.8" font-family="Times,serif" font-size="14.00" fill="#000000">TextInputComponent</text>
</g>
<!-- TextInputComponent&#45;&gt;FormbuilderModule -->
<g id="edge10" class="edge">
<title>TextInputComponent&#45;&gt;FormbuilderModule</title>
<path fill="none" stroke="#000000" d="M609.8754,-122.0352C609.8754,-138.7344 609.8754,-161 609.8754,-161 609.8754,-161 908.4326,-161 908.4326,-161"/>
<polygon fill="#000000" stroke="#000000" points="908.4327,-164.5001 918.4326,-161 908.4326,-157.5001 908.4327,-164.5001"/>
</g>
<!-- TranslatePipe -->
<g id="node11" class="node">
<title>TranslatePipe</title>
<polygon fill="#ffffb3" stroke="#000000" points="468.4706,-122 375.5294,-122 375.5294,-86 468.4706,-86 468.4706,-122"/>
<text text-anchor="middle" x="422" y="-99.8" font-family="Times,serif" font-size="14.00" fill="#000000">TranslatePipe</text>
</g>
<!-- TranslatePipe&#45;&gt;FormbuilderModule -->
<g id="edge11" class="edge">
<title>TranslatePipe&#45;&gt;FormbuilderModule</title>
<path fill="none" stroke="#000000" d="M464.1748,-122.302C464.1748,-140.2699 464.1748,-165 464.1748,-165 464.1748,-165 908.3395,-165 908.3395,-165"/>
<polygon fill="#000000" stroke="#000000" points="908.3395,-168.5001 918.3395,-165 908.3394,-161.5001 908.3395,-168.5001"/>
</g>
<!-- AutocompleteComponent  -->
<g id="node13" class="node">
<title>AutocompleteComponent </title>
<polygon fill="#fb8072" stroke="#000000" points="1714.1453,-252 1549.8547,-252 1549.8547,-216 1714.1453,-216 1714.1453,-252"/>
<text text-anchor="middle" x="1632" y="-229.8" font-family="Times,serif" font-size="14.00" fill="#000000">AutocompleteComponent </text>
</g>
<!-- FormbuilderModule&#45;&gt;AutocompleteComponent  -->
<g id="edge12" class="edge">
<title>FormbuilderModule&#45;&gt;AutocompleteComponent </title>
<path fill="none" stroke="#000000" stroke-dasharray="5,2" d="M1047.6517,-174C1205.5464,-174 1597.9836,-174 1597.9836,-174 1597.9836,-174 1597.9836,-205.998 1597.9836,-205.998"/>
<polygon fill="#000000" stroke="#000000" points="1594.4837,-205.998 1597.9836,-215.998 1601.4837,-205.9981 1594.4837,-205.998"/>
</g>
<!-- CheckboxComponent  -->
<g id="node14" class="node">
<title>CheckboxComponent </title>
<polygon fill="#fb8072" stroke="#000000" points="1531.5988,-252 1390.4012,-252 1390.4012,-216 1531.5988,-216 1531.5988,-252"/>
<text text-anchor="middle" x="1461" y="-229.8" font-family="Times,serif" font-size="14.00" fill="#000000">CheckboxComponent </text>
</g>
<!-- FormbuilderModule&#45;&gt;CheckboxComponent  -->
<g id="edge13" class="edge">
<title>FormbuilderModule&#45;&gt;CheckboxComponent </title>
<path fill="none" stroke="#000000" stroke-dasharray="5,2" d="M1047.5553,-178C1183.4578,-178 1486.6477,-178 1486.6477,-178 1486.6477,-178 1486.6477,-205.973 1486.6477,-205.973"/>
<polygon fill="#000000" stroke="#000000" points="1483.1478,-205.973 1486.6477,-215.973 1490.1478,-205.973 1483.1478,-205.973"/>
</g>
<!-- DateInputComponent  -->
<g id="node15" class="node">
<title>DateInputComponent </title>
<polygon fill="#fb8072" stroke="#000000" points="1372.3101,-252 1231.6899,-252 1231.6899,-216 1372.3101,-216 1372.3101,-252"/>
<text text-anchor="middle" x="1302" y="-229.8" font-family="Times,serif" font-size="14.00" fill="#000000">DateInputComponent </text>
</g>
<!-- FormbuilderModule&#45;&gt;DateInputComponent  -->
<g id="edge14" class="edge">
<title>FormbuilderModule&#45;&gt;DateInputComponent </title>
<path fill="none" stroke="#000000" stroke-dasharray="5,2" d="M1047.8372,-181C1123.5708,-181 1238.632,-181 1238.632,-181 1238.632,-181 1238.632,-205.7604 1238.632,-205.7604"/>
<polygon fill="#000000" stroke="#000000" points="1235.1321,-205.7604 1238.632,-215.7604 1242.1321,-205.7604 1235.1321,-205.7604"/>
</g>
<!-- FileInputComponent  -->
<g id="node16" class="node">
<title>FileInputComponent </title>
<polygon fill="#fb8072" stroke="#000000" points="1214.1621,-252 1077.8379,-252 1077.8379,-216 1214.1621,-216 1214.1621,-252"/>
<text text-anchor="middle" x="1146" y="-229.8" font-family="Times,serif" font-size="14.00" fill="#000000">FileInputComponent </text>
</g>
<!-- FormbuilderModule&#45;&gt;FileInputComponent  -->
<g id="edge15" class="edge">
<title>FormbuilderModule&#45;&gt;FileInputComponent </title>
<path fill="none" stroke="#000000" stroke-dasharray="5,2" d="M1047.686,-184C1101.277,-184 1168.6937,-184 1168.6937,-184 1168.6937,-184 1168.6937,-205.9489 1168.6937,-205.9489"/>
<polygon fill="#000000" stroke="#000000" points="1165.1938,-205.9488 1168.6937,-215.9489 1172.1938,-205.9489 1165.1938,-205.9488"/>
</g>
<!-- FormbuilderComponent  -->
<g id="node17" class="node">
<title>FormbuilderComponent </title>
<polygon fill="#fb8072" stroke="#000000" points="1060.3227,-252 905.6773,-252 905.6773,-216 1060.3227,-216 1060.3227,-252"/>
<text text-anchor="middle" x="983" y="-229.8" font-family="Times,serif" font-size="14.00" fill="#000000">FormbuilderComponent </text>
</g>
<!-- FormbuilderModule&#45;&gt;FormbuilderComponent  -->
<g id="edge16" class="edge">
<title>FormbuilderModule&#45;&gt;FormbuilderComponent </title>
<path fill="none" stroke="#000000" stroke-dasharray="5,2" d="M1004.59,-187.1061C1004.59,-187.1061 1004.59,-205.991 1004.59,-205.991"/>
<polygon fill="#000000" stroke="#000000" points="1001.0901,-205.9909 1004.59,-215.991 1008.0901,-205.991 1001.0901,-205.9909"/>
</g>
<!-- FormbuilderModule&#45;&gt;FormbuilderComponent  -->
<g id="edge21" class="edge">
<title>FormbuilderModule&#45;&gt;FormbuilderComponent </title>
<path fill="none" stroke="#000000" stroke-dasharray="1,5" d="M961.41,-187.1061C961.41,-187.1061 961.41,-205.991 961.41,-205.991"/>
<polygon fill="#000000" stroke="#000000" points="957.9101,-205.9909 961.41,-215.991 964.9101,-205.991 957.9101,-205.9909"/>
</g>
<!-- RadiobuttonComponent  -->
<g id="node18" class="node">
<title>RadiobuttonComponent </title>
<polygon fill="#fb8072" stroke="#000000" points="888.0554,-252 733.9446,-252 733.9446,-216 888.0554,-216 888.0554,-252"/>
<text text-anchor="middle" x="811" y="-229.8" font-family="Times,serif" font-size="14.00" fill="#000000">RadiobuttonComponent </text>
</g>
<!-- FormbuilderModule&#45;&gt;RadiobuttonComponent  -->
<g id="edge17" class="edge">
<title>FormbuilderModule&#45;&gt;RadiobuttonComponent </title>
<path fill="none" stroke="#000000" stroke-dasharray="5,2" d="M918.4137,-184C870.0355,-184 812.1626,-184 812.1626,-184 812.1626,-184 812.1626,-205.9489 812.1626,-205.9489"/>
<polygon fill="#000000" stroke="#000000" points="808.6627,-205.9488 812.1626,-215.9489 815.6627,-205.9489 808.6627,-205.9488"/>
</g>
<!-- SelectComponent  -->
<g id="node19" class="node">
<title>SelectComponent </title>
<polygon fill="#fb8072" stroke="#000000" points="715.54,-252 596.46,-252 596.46,-216 715.54,-216 715.54,-252"/>
<text text-anchor="middle" x="656" y="-229.8" font-family="Times,serif" font-size="14.00" fill="#000000">SelectComponent </text>
</g>
<!-- FormbuilderModule&#45;&gt;SelectComponent  -->
<g id="edge18" class="edge">
<title>FormbuilderModule&#45;&gt;SelectComponent </title>
<path fill="none" stroke="#000000" stroke-dasharray="5,2" d="M918.4376,-181C829.0741,-181 678.5672,-181 678.5672,-181 678.5672,-181 678.5672,-205.7604 678.5672,-205.7604"/>
<polygon fill="#000000" stroke="#000000" points="675.0672,-205.7604 678.5672,-215.7604 682.0672,-205.7604 675.0672,-205.7604"/>
</g>
<!-- SliderComponent  -->
<g id="node20" class="node">
<title>SliderComponent </title>
<polygon fill="#fb8072" stroke="#000000" points="578.2717,-252 459.7283,-252 459.7283,-216 578.2717,-216 578.2717,-252"/>
<text text-anchor="middle" x="519" y="-229.8" font-family="Times,serif" font-size="14.00" fill="#000000">SliderComponent </text>
</g>
<!-- FormbuilderModule&#45;&gt;SliderComponent  -->
<g id="edge19" class="edge">
<title>FormbuilderModule&#45;&gt;SliderComponent </title>
<path fill="none" stroke="#000000" stroke-dasharray="5,2" d="M918.4447,-178C793.8587,-178 532.4325,-178 532.4325,-178 532.4325,-178 532.4325,-205.973 532.4325,-205.973"/>
<polygon fill="#000000" stroke="#000000" points="528.9326,-205.973 532.4325,-215.973 535.9326,-205.973 528.9326,-205.973"/>
</g>
<!-- TextInputComponent  -->
<g id="node21" class="node">
<title>TextInputComponent </title>
<polygon fill="#fb8072" stroke="#000000" points="442.0414,-252 301.9586,-252 301.9586,-216 442.0414,-216 442.0414,-252"/>
<text text-anchor="middle" x="372" y="-229.8" font-family="Times,serif" font-size="14.00" fill="#000000">TextInputComponent </text>
</g>
<!-- FormbuilderModule&#45;&gt;TextInputComponent  -->
<g id="edge20" class="edge">
<title>FormbuilderModule&#45;&gt;TextInputComponent </title>
<path fill="none" stroke="#000000" stroke-dasharray="5,2" d="M918.2445,-174C768.0681,-174 408.7677,-174 408.7677,-174 408.7677,-174 408.7677,-205.998 408.7677,-205.998"/>
<polygon fill="#000000" stroke="#000000" points="405.2678,-205.998 408.7677,-215.998 412.2678,-205.9981 405.2678,-205.998"/>
</g>
<!-- ConfigService -->
<g id="node22" class="node">
<title>ConfigService</title>
<ellipse fill="#fdb462" stroke="#000000" cx="285" cy="-104" rx="66.6325" ry="18"/>
<text text-anchor="middle" x="285" y="-99.8" font-family="Times,serif" font-size="14.00" fill="#000000">ConfigService</text>
</g>
<!-- ConfigService&#45;&gt;FormbuilderModule -->
<g id="edge22" class="edge">
<title>ConfigService&#45;&gt;FormbuilderModule</title>
<path fill="none" stroke="#000000" d="M326.8976,-118.2037C326.8976,-137.0586 326.8976,-168 326.8976,-168 326.8976,-168 908.2948,-168 908.2948,-168"/>
<polygon fill="#000000" stroke="#000000" points="908.2948,-171.5001 918.2948,-168 908.2948,-164.5001 908.2948,-171.5001"/>
</g>
<!-- DataFlattnerService -->
<g id="node23" class="node">
<title>DataFlattnerService</title>
<ellipse fill="#fdb462" stroke="#000000" cx="112" cy="-104" rx="88.0133" ry="18"/>
<text text-anchor="middle" x="112" y="-99.8" font-family="Times,serif" font-size="14.00" fill="#000000">DataFlattnerService</text>
</g>
<!-- DataFlattnerService&#45;&gt;FormbuilderModule -->
<g id="edge23" class="edge">
<title>DataFlattnerService&#45;&gt;FormbuilderModule</title>
<path fill="none" stroke="#000000" d="M112,-122.308C112,-142.1455 112,-171 112,-171 112,-171 908.245,-171 908.245,-171"/>
<polygon fill="#000000" stroke="#000000" points="908.2451,-174.5001 918.245,-171 908.245,-167.5001 908.2451,-174.5001"/>
</g>
</g>
</svg>
