<?xml version="1.0" encoding="UTF-8" standalone="no"?>
<!DOCTYPE svg PUBLIC "-//W3C//DTD SVG 1.1//EN"
  "http://www.w3.org/Graphics/SVG/1.1/DTD/svg11.dtd">
<!-- Generated by graphviz version 2.40.1 (20161225.0304)
 -->
<!-- Title: dependencies Pages: 1 -->
<svg width="2257pt" height="284pt"
     viewBox="0.00 0.00 2257.00 284.00" xmlns="http://www.w3.org/2000/svg">
  <g id="graph0" class="graph" transform="scale(1 1) rotate(0) translate(4 280)">
    <title>dependencies</title>
    <polygon fill="#ffffff" stroke="transparent" points="-4,4 -4,-280 2253,-280 2253,4 -4,4"/>
    <text text-anchor="start" x="1103.5091" y="-42.4" font-family="sans-serif" font-weight="bold" font-size="14.00"
          fill="#000000">Legend
    </text>
    <polygon fill="#ffffb3" stroke="transparent" points="890.5,-10 890.5,-30 910.5,-30 910.5,-10 890.5,-10"/>
    <text text-anchor="start" x="914.129" y="-15.4" font-family="sans-serif" font-size="14.00" fill="#000000">&#160;Declarations</text>
    <polygon fill="#8dd3c7" stroke="transparent" points="1003.5,-10 1003.5,-30 1023.5,-30 1023.5,-10 1003.5,-10"/>
    <text text-anchor="start" x="1027.2251" y="-15.4" font-family="sans-serif" font-size="14.00" fill="#000000">&#160;Module</text>
    <polygon fill="#80b1d3" stroke="transparent" points="1089.5,-10 1089.5,-30 1109.5,-30 1109.5,-10 1089.5,-10"/>
    <text text-anchor="start" x="1113.2812" y="-15.4" font-family="sans-serif" font-size="14.00" fill="#000000">&#160;Bootstrap</text>
    <polygon fill="#fdb462" stroke="transparent" points="1186.5,-10 1186.5,-30 1206.5,-30 1206.5,-10 1186.5,-10"/>
    <text text-anchor="start" x="1210.1732" y="-15.4" font-family="sans-serif" font-size="14.00" fill="#000000">&#160;Providers</text>
    <polygon fill="#fb8072" stroke="transparent" points="1282.5,-10 1282.5,-30 1302.5,-30 1302.5,-10 1282.5,-10"/>
    <text text-anchor="start" x="1306.2258" y="-15.4" font-family="sans-serif" font-size="14.00" fill="#000000">&#160;Exports</text>
    <g id="clust1" class="cluster">
      <title>cluster_AppModule</title>
      <polygon fill="none" stroke="#000000" stroke-dasharray="1,5" points="8,-70 8,-268 2241,-268 2241,-70 8,-70"/>
    </g>
    <g id="clust2" class="cluster">
      <title>cluster_AppModule_declarations</title>
      <polygon fill="none" stroke="#000000" points="168,-78 168,-130 2233,-130 2233,-78 168,-78"/>
    </g>
    <g id="clust17" class="cluster">
      <title>cluster_AppModule_imports</title>
      <polygon fill="none" stroke="#000000" points="16,-78 16,-130 160,-130 160,-78 16,-78"/>
    </g>
    <g id="clust19" class="cluster">
      <title>cluster_AppModule_bootstrap</title>
      <polygon fill="none" stroke="#000000" points="1041,-208 1041,-260 1165,-260 1165,-208 1041,-208"/>
    </g>
    <!-- AppComponent -->
    <g id="node1" class="node">
      <title>AppComponent</title>
      <polygon fill="#ffffb3" stroke="#000000"
               points="2224.9399,-122 2119.0601,-122 2119.0601,-86 2224.9399,-86 2224.9399,-122"/>
      <text text-anchor="middle" x="2172" y="-99.8" font-family="Times,serif" font-size="14.00" fill="#000000">
        AppComponent
      </text>
    </g>
    <!-- AppModule -->
    <g id="node15" class="node">
      <title>AppModule</title>
      <polygon fill="#8dd3c7" stroke="#000000"
               points="1144.6571,-187 1141.6571,-191 1120.6571,-191 1117.6571,-187 1061.3429,-187 1061.3429,-151 1144.6571,-151 1144.6571,-187"/>
      <text text-anchor="middle" x="1103" y="-164.8" font-family="Times,serif" font-size="14.00" fill="#000000">
        AppModule
      </text>
    </g>
    <!-- AppComponent&#45;&gt;AppModule -->
    <g id="edge1" class="edge">
      <title>AppComponent&#45;&gt;AppModule</title>
      <path fill="none" stroke="#000000"
            d="M2172,-122.3228C2172,-145.6602 2172,-183 2172,-183 2172,-183 1154.9061,-183 1154.9061,-183"/>
      <polygon fill="#000000" stroke="#000000"
               points="1154.9061,-179.5001 1144.9061,-183 1154.906,-186.5001 1154.9061,-179.5001"/>
    </g>
    <!-- AutocompleteComponent -->
    <g id="node2" class="node">
      <title>AutocompleteComponent</title>
      <polygon fill="#ffffb3" stroke="#000000"
               points="2101.1456,-122 1940.8544,-122 1940.8544,-86 2101.1456,-86 2101.1456,-122"/>
      <text text-anchor="middle" x="2021" y="-99.8" font-family="Times,serif" font-size="14.00" fill="#000000">
        AutocompleteComponent
      </text>
    </g>
    <!-- AutocompleteComponent&#45;&gt;AppModule -->
    <g id="edge2" class="edge">
      <title>AutocompleteComponent&#45;&gt;AppModule</title>
      <path fill="none" stroke="#000000"
            d="M2021,-122.2921C2021,-144.2057 2021,-178 2021,-178 2021,-178 1154.83,-178 1154.83,-178"/>
      <polygon fill="#000000" stroke="#000000"
               points="1154.83,-174.5001 1144.83,-178 1154.83,-181.5001 1154.83,-174.5001"/>
    </g>
    <!-- CheckboxComponent -->
    <g id="node3" class="node">
      <title>CheckboxComponent</title>
      <polygon fill="#ffffb3" stroke="#000000"
               points="1923.0982,-122 1784.9018,-122 1784.9018,-86 1923.0982,-86 1923.0982,-122"/>
      <text text-anchor="middle" x="1854" y="-99.8" font-family="Times,serif" font-size="14.00" fill="#000000">
        CheckboxComponent
      </text>
    </g>
    <!-- CheckboxComponent&#45;&gt;AppModule -->
    <g id="edge3" class="edge">
      <title>CheckboxComponent&#45;&gt;AppModule</title>
      <path fill="none" stroke="#000000"
            d="M1854,-122.0267C1854,-142.7672 1854,-174 1854,-174 1854,-174 1154.7161,-174 1154.7161,-174"/>
      <polygon fill="#000000" stroke="#000000"
               points="1154.7162,-170.5001 1144.7161,-174 1154.7161,-177.5001 1154.7162,-170.5001"/>
    </g>
    <!-- ControlpanelComponent -->
    <g id="node4" class="node">
      <title>ControlpanelComponent</title>
      <polygon fill="#ffffb3" stroke="#000000"
               points="1767.4312,-122 1612.5688,-122 1612.5688,-86 1767.4312,-86 1767.4312,-122"/>
      <text text-anchor="middle" x="1690" y="-99.8" font-family="Times,serif" font-size="14.00" fill="#000000">
        ControlpanelComponent
      </text>
    </g>
    <!-- ControlpanelComponent&#45;&gt;AppModule -->
    <g id="edge4" class="edge">
      <title>ControlpanelComponent&#45;&gt;AppModule</title>
      <path fill="none" stroke="#000000"
            d="M1690,-122.1061C1690,-141.3391 1690,-169 1690,-169 1690,-169 1154.745,-169 1154.745,-169"/>
      <polygon fill="#000000" stroke="#000000"
               points="1154.745,-165.5001 1144.745,-169 1154.745,-172.5001 1154.745,-165.5001"/>
    </g>
    <!-- DateInputComponent -->
    <g id="node5" class="node">
      <title>DateInputComponent</title>
      <polygon fill="#ffffb3" stroke="#000000"
               points="1594.8104,-122 1457.1896,-122 1457.1896,-86 1594.8104,-86 1594.8104,-122"/>
      <text text-anchor="middle" x="1526" y="-99.8" font-family="Times,serif" font-size="14.00" fill="#000000">
        DateInputComponent
      </text>
    </g>
    <!-- DateInputComponent&#45;&gt;AppModule -->
    <g id="edge5" class="edge">
      <title>DateInputComponent&#45;&gt;AppModule</title>
      <path fill="none" stroke="#000000"
            d="M1526,-122.302C1526,-140.2699 1526,-165 1526,-165 1526,-165 1154.7165,-165 1154.7165,-165"/>
      <polygon fill="#000000" stroke="#000000"
               points="1154.7166,-161.5001 1144.7165,-165 1154.7165,-168.5001 1154.7166,-161.5001"/>
    </g>
    <!-- DialogsComponent -->
    <g id="node6" class="node">
      <title>DialogsComponent</title>
      <polygon fill="#ffffb3" stroke="#000000"
               points="1439.3795,-122 1314.6205,-122 1314.6205,-86 1439.3795,-86 1439.3795,-122"/>
      <text text-anchor="middle" x="1377" y="-99.8" font-family="Times,serif" font-size="14.00" fill="#000000">
        DialogsComponent
      </text>
    </g>
    <!-- DialogsComponent&#45;&gt;AppModule -->
    <g id="edge6" class="edge">
      <title>DialogsComponent&#45;&gt;AppModule</title>
      <path fill="none" stroke="#000000"
            d="M1377,-122.027C1377,-138.3976 1377,-160 1377,-160 1377,-160 1154.913,-160 1154.913,-160"/>
      <polygon fill="#000000" stroke="#000000"
               points="1154.913,-156.5001 1144.913,-160 1154.9129,-163.5001 1154.913,-156.5001"/>
    </g>
    <!-- FieldComponent -->
    <g id="node7" class="node">
      <title>FieldComponent</title>
      <polygon fill="#ffffb3" stroke="#000000"
               points="1297.1109,-122 1186.8891,-122 1186.8891,-86 1297.1109,-86 1297.1109,-122"/>
      <text text-anchor="middle" x="1242" y="-99.8" font-family="Times,serif" font-size="14.00" fill="#000000">
        FieldComponent
      </text>
    </g>
    <!-- FieldComponent&#45;&gt;AppModule -->
    <g id="edge7" class="edge">
      <title>FieldComponent&#45;&gt;AppModule</title>
      <path fill="none" stroke="#000000"
            d="M1242,-122.1871C1242,-137.1824 1242,-156 1242,-156 1242,-156 1154.7046,-156 1154.7046,-156"/>
      <polygon fill="#000000" stroke="#000000"
               points="1154.7046,-152.5001 1144.7046,-156 1154.7045,-159.5001 1154.7046,-152.5001"/>
    </g>
    <!-- FileInputComponent -->
    <g id="node8" class="node">
      <title>FileInputComponent</title>
      <polygon fill="#ffffb3" stroke="#000000"
               points="1169.1624,-122 1036.8376,-122 1036.8376,-86 1169.1624,-86 1169.1624,-122"/>
      <text text-anchor="middle" x="1103" y="-99.8" font-family="Times,serif" font-size="14.00" fill="#000000">
        FileInputComponent
      </text>
    </g>
    <!-- FileInputComponent&#45;&gt;AppModule -->
    <g id="edge8" class="edge">
      <title>FileInputComponent&#45;&gt;AppModule</title>
      <path fill="none" stroke="#000000" d="M1103,-122.1061C1103,-122.1061 1103,-140.991 1103,-140.991"/>
      <polygon fill="#000000" stroke="#000000"
               points="1099.5001,-140.9909 1103,-150.991 1106.5001,-140.991 1099.5001,-140.9909"/>
    </g>
    <!-- RadiobuttonComponent -->
    <g id="node9" class="node">
      <title>RadiobuttonComponent</title>
      <polygon fill="#ffffb3" stroke="#000000"
               points="1018.0561,-122 867.9439,-122 867.9439,-86 1018.0561,-86 1018.0561,-122"/>
      <text text-anchor="middle" x="943" y="-99.8" font-family="Times,serif" font-size="14.00" fill="#000000">
        RadiobuttonComponent
      </text>
    </g>
    <!-- RadiobuttonComponent&#45;&gt;AppModule -->
    <g id="edge9" class="edge">
      <title>RadiobuttonComponent&#45;&gt;AppModule</title>
      <path fill="none" stroke="#000000"
            d="M943,-122.1871C943,-137.1824 943,-156 943,-156 943,-156 1050.9619,-156 1050.9619,-156"/>
      <polygon fill="#000000" stroke="#000000"
               points="1050.9619,-159.5001 1060.9619,-156 1050.9618,-152.5001 1050.9619,-159.5001"/>
    </g>
    <!-- SelectComponent -->
    <g id="node10" class="node">
      <title>SelectComponent</title>
      <polygon fill="#ffffb3" stroke="#000000"
               points="849.5409,-122 734.4591,-122 734.4591,-86 849.5409,-86 849.5409,-122"/>
      <text text-anchor="middle" x="792" y="-99.8" font-family="Times,serif" font-size="14.00" fill="#000000">
        SelectComponent
      </text>
    </g>
    <!-- SelectComponent&#45;&gt;AppModule -->
    <g id="edge10" class="edge">
      <title>SelectComponent&#45;&gt;AppModule</title>
      <path fill="none" stroke="#000000"
            d="M792,-122.027C792,-138.3976 792,-160 792,-160 792,-160 1051.0572,-160 1051.0572,-160"/>
      <polygon fill="#000000" stroke="#000000"
               points="1051.0572,-163.5001 1061.0572,-160 1051.0571,-156.5001 1051.0572,-163.5001"/>
    </g>
    <!-- SliderComponent -->
    <g id="node11" class="node">
      <title>SliderComponent</title>
      <polygon fill="#ffffb3" stroke="#000000"
               points="716.2716,-122 601.7284,-122 601.7284,-86 716.2716,-86 716.2716,-122"/>
      <text text-anchor="middle" x="659" y="-99.8" font-family="Times,serif" font-size="14.00" fill="#000000">
        SliderComponent
      </text>
    </g>
    <!-- SliderComponent&#45;&gt;AppModule -->
    <g id="edge11" class="edge">
      <title>SliderComponent&#45;&gt;AppModule</title>
      <path fill="none" stroke="#000000"
            d="M659,-122.302C659,-140.2699 659,-165 659,-165 659,-165 1051.2296,-165 1051.2296,-165"/>
      <polygon fill="#000000" stroke="#000000"
               points="1051.2296,-168.5001 1061.2296,-165 1051.2295,-161.5001 1051.2296,-168.5001"/>
    </g>
    <!-- TabsComponent -->
    <g id="node12" class="node">
      <title>TabsComponent</title>
      <polygon fill="#ffffb3" stroke="#000000"
               points="583.0452,-122 474.9548,-122 474.9548,-86 583.0452,-86 583.0452,-122"/>
      <text text-anchor="middle" x="529" y="-99.8" font-family="Times,serif" font-size="14.00" fill="#000000">
        TabsComponent
      </text>
    </g>
    <!-- TabsComponent&#45;&gt;AppModule -->
    <g id="edge12" class="edge">
      <title>TabsComponent&#45;&gt;AppModule</title>
      <path fill="none" stroke="#000000"
            d="M529,-122.1061C529,-141.3391 529,-169 529,-169 529,-169 1051.257,-169 1051.257,-169"/>
      <polygon fill="#000000" stroke="#000000"
               points="1051.257,-172.5001 1061.257,-169 1051.2569,-165.5001 1051.257,-172.5001"/>
    </g>
    <!-- TextInputComponent -->
    <g id="node13" class="node">
      <title>TextInputComponent</title>
      <polygon fill="#ffffb3" stroke="#000000"
               points="456.0422,-122 319.9578,-122 319.9578,-86 456.0422,-86 456.0422,-122"/>
      <text text-anchor="middle" x="388" y="-99.8" font-family="Times,serif" font-size="14.00" fill="#000000">
        TextInputComponent
      </text>
    </g>
    <!-- TextInputComponent&#45;&gt;AppModule -->
    <g id="edge13" class="edge">
      <title>TextInputComponent&#45;&gt;AppModule</title>
      <path fill="none" stroke="#000000"
            d="M388,-122.0267C388,-142.7672 388,-174 388,-174 388,-174 1051.2058,-174 1051.2058,-174"/>
      <polygon fill="#000000" stroke="#000000"
               points="1051.2059,-177.5001 1061.2058,-174 1051.2058,-170.5001 1051.2059,-177.5001"/>
    </g>
    <!-- ToolbarComponent -->
    <g id="node14" class="node">
      <title>ToolbarComponent</title>
      <polygon fill="#ffffb3" stroke="#000000"
               points="301.6513,-122 176.3487,-122 176.3487,-86 301.6513,-86 301.6513,-122"/>
      <text text-anchor="middle" x="239" y="-99.8" font-family="Times,serif" font-size="14.00" fill="#000000">
        ToolbarComponent
      </text>
    </g>
    <!-- ToolbarComponent&#45;&gt;AppModule -->
    <g id="edge14" class="edge">
      <title>ToolbarComponent&#45;&gt;AppModule</title>
      <path fill="none" stroke="#000000"
            d="M239,-122.2921C239,-144.2057 239,-178 239,-178 239,-178 1051.3275,-178 1051.3275,-178"/>
      <polygon fill="#000000" stroke="#000000"
               points="1051.3275,-181.5001 1061.3275,-178 1051.3274,-174.5001 1051.3275,-181.5001"/>
    </g>
    <!-- AppComponent  -->
    <g id="node17" class="node">
      <title>AppComponent</title>
      <polygon fill="#80b1d3" stroke="#000000"
               points="1157.439,-252 1048.561,-252 1048.561,-216 1157.439,-216 1157.439,-252"/>
      <text text-anchor="middle" x="1103" y="-229.8" font-family="Times,serif" font-size="14.00" fill="#000000">
        AppComponent
      </text>
    </g>
    <!-- AppModule&#45;&gt;AppComponent  -->
    <g id="edge16" class="edge">
      <title>AppModule&#45;&gt;AppComponent</title>
      <path fill="none" stroke="#000000" stroke-dasharray="1,5"
            d="M1103,-187.1061C1103,-187.1061 1103,-205.991 1103,-205.991"/>
      <polygon fill="#000000" stroke="#000000"
               points="1099.5001,-205.9909 1103,-215.991 1106.5001,-205.991 1099.5001,-205.9909"/>
    </g>
    <!-- AppRoutingModule -->
    <g id="node16" class="node">
      <title>AppRoutingModule</title>
      <polygon fill="#8dd3c7" stroke="#000000"
               points="152.2744,-122 149.2744,-126 128.2744,-126 125.2744,-122 23.7256,-122 23.7256,-86 152.2744,-86 152.2744,-122"/>
      <text text-anchor="middle" x="88" y="-99.8" font-family="Times,serif" font-size="14.00" fill="#000000">
        AppRoutingModule
      </text>
    </g>
    <!-- AppRoutingModule&#45;&gt;AppModule -->
    <g id="edge15" class="edge">
      <title>AppRoutingModule&#45;&gt;AppModule</title>
      <path fill="none" stroke="#000000"
            d="M88,-122.3228C88,-145.6602 88,-183 88,-183 88,-183 1051.3185,-183 1051.3185,-183"/>
      <polygon fill="#000000" stroke="#000000"
               points="1051.3185,-186.5001 1061.3185,-183 1051.3185,-179.5001 1051.3185,-186.5001"/>
    </g>
  </g>
</svg>
