<?xml version="1.0" encoding="UTF-8" standalone="no"?>
<!DOCTYPE svg PUBLIC "-//W3C//DTD SVG 1.1//EN"
 "http://www.w3.org/Graphics/SVG/1.1/DTD/svg11.dtd">
<!-- Generated by graphviz version 2.47.3 (20210619.1520)
 -->
<!-- Title: dependencies Pages: 1 -->
<svg width="2946pt" height="247pt"
 viewBox="0.00 0.00 2946.00 246.80" xmlns="http://www.w3.org/2000/svg" xmlns:xlink="http://www.w3.org/1999/xlink">
<g id="graph0" class="graph" transform="scale(1 1) rotate(0) translate(4 242.8)">
<title>dependencies</title>
<polygon fill="white" stroke="transparent" points="-4,4 -4,-242.8 2942,-242.8 2942,4 -4,4"/>
<text text-anchor="middle" x="1469" y="-8.2" font-family="sans-serif" font-size="14.00">dependencies</text>
<g id="clust1" class="cluster">
<title>cluster_FormbuilderModule</title>
<polygon fill="none" stroke="black" stroke-dasharray="1,5" points="8,-32.8 8,-230.8 2930,-230.8 2930,-32.8 8,-32.8"/>
</g>
<g id="clust2" class="cluster">
<title>cluster_FormbuilderModule_declarations</title>
<polygon fill="none" stroke="black" points="368,-40.8 368,-92.8 2922,-92.8 2922,-40.8 368,-40.8"/>
</g>
<g id="clust20" class="cluster">
<title>cluster_FormbuilderModule_exports</title>
<polygon fill="none" stroke="black" points="438,-170.8 438,-222.8 2285,-222.8 2285,-170.8 438,-170.8"/>
</g>
<g id="clust22" class="cluster">
<title>cluster_FormbuilderModule_providers</title>
<polygon fill="none" stroke="black" points="16,-40.8 16,-92.8 360,-92.8 360,-40.8 16,-40.8"/>
</g>
<!-- AutocompleteComponent -->
<g id="node1" class="node">
<title>AutocompleteComponent</title>
<polygon fill="#ffffb3" stroke="black" points="2914.15,-84.8 2753.85,-84.8 2753.85,-48.8 2914.15,-48.8 2914.15,-84.8"/>
<text text-anchor="middle" x="2834" y="-62.6" font-family="Times,serif" font-size="14.00">AutocompleteComponent</text>
</g>
<!-- FormbuilderModule -->
<g id="node17" class="node">
<title>FormbuilderModule</title>
<polygon fill="#8dd3c7" stroke="black" points="1438.54,-149.8 1435.54,-153.8 1414.54,-153.8 1411.54,-149.8 1309.46,-149.8 1309.46,-113.8 1438.54,-113.8 1438.54,-149.8"/>
<text text-anchor="middle" x="1374" y="-127.6" font-family="Times,serif" font-size="14.00">FormbuilderModule</text>
</g>
<!-- AutocompleteComponent&#45;&gt;FormbuilderModule -->
<g id="edge1" class="edge">
<title>AutocompleteComponent&#45;&gt;FormbuilderModule</title>
<path fill="none" stroke="black" d="M2834,-85.11C2834,-104.95 2834,-133.8 2834,-133.8 2834,-133.8 1448.62,-133.8 1448.62,-133.8"/>
<polygon fill="black" stroke="black" points="1448.62,-130.3 1438.62,-133.8 1448.62,-137.3 1448.62,-130.3"/>
</g>
<!-- BaseFieldComponent -->
<g id="node2" class="node">
<title>BaseFieldComponent</title>
<polygon fill="#ffffb3" stroke="black" points="2735.82,-84.8 2598.18,-84.8 2598.18,-48.8 2735.82,-48.8 2735.82,-84.8"/>
<text text-anchor="middle" x="2667" y="-62.6" font-family="Times,serif" font-size="14.00">BaseFieldComponent</text>
</g>
<!-- BaseFieldComponent&#45;&gt;FormbuilderModule -->
<g id="edge2" class="edge">
<title>BaseFieldComponent&#45;&gt;FormbuilderModule</title>
<path fill="none" stroke="black" d="M2667,-84.97C2667,-103.89 2667,-130.8 2667,-130.8 2667,-130.8 1448.56,-130.8 1448.56,-130.8"/>
<polygon fill="black" stroke="black" points="1448.56,-127.3 1438.56,-130.8 1448.56,-134.3 1448.56,-127.3"/>
</g>
<!-- CheckboxComponent -->
<g id="node3" class="node">
<title>CheckboxComponent</title>
<polygon fill="#ffffb3" stroke="black" points="2580.1,-84.8 2441.9,-84.8 2441.9,-48.8 2580.1,-48.8 2580.1,-84.8"/>
<text text-anchor="middle" x="2511" y="-62.6" font-family="Times,serif" font-size="14.00">CheckboxComponent</text>
</g>
<!-- CheckboxComponent&#45;&gt;FormbuilderModule -->
<g id="edge3" class="edge">
<title>CheckboxComponent&#45;&gt;FormbuilderModule</title>
<path fill="none" stroke="black" d="M2511,-85.07C2511,-103.36 2511,-128.8 2511,-128.8 2511,-128.8 1448.8,-128.8 1448.8,-128.8"/>
<polygon fill="black" stroke="black" points="1448.8,-125.3 1438.8,-128.8 1448.8,-132.3 1448.8,-125.3"/>
</g>
<!-- ConfirmDialogComponent -->
<g id="node4" class="node">
<title>ConfirmDialogComponent</title>
<polygon fill="#ffffb3" stroke="black" points="2424.37,-84.8 2257.63,-84.8 2257.63,-48.8 2424.37,-48.8 2424.37,-84.8"/>
<text text-anchor="middle" x="2341" y="-62.6" font-family="Times,serif" font-size="14.00">ConfirmDialogComponent</text>
</g>
<!-- ConfirmDialogComponent&#45;&gt;FormbuilderModule -->
<g id="edge4" class="edge">
<title>ConfirmDialogComponent&#45;&gt;FormbuilderModule</title>
<path fill="none" stroke="black" d="M2267.32,-84.82C2267.32,-102.17 2267.32,-125.8 2267.32,-125.8 2267.32,-125.8 1448.6,-125.8 1448.6,-125.8"/>
<polygon fill="black" stroke="black" points="1448.6,-122.3 1438.6,-125.8 1448.6,-129.3 1448.6,-122.3"/>
</g>
<!-- DateInputComponent -->
<g id="node5" class="node">
<title>DateInputComponent</title>
<polygon fill="#ffffb3" stroke="black" points="2239.81,-84.8 2102.19,-84.8 2102.19,-48.8 2239.81,-48.8 2239.81,-84.8"/>
<text text-anchor="middle" x="2171" y="-62.6" font-family="Times,serif" font-size="14.00">DateInputComponent</text>
</g>
<!-- DateInputComponent&#45;&gt;FormbuilderModule -->
<g id="edge5" class="edge">
<title>DateInputComponent&#45;&gt;FormbuilderModule</title>
<path fill="none" stroke="black" d="M2107.64,-84.84C2107.64,-101.53 2107.64,-123.8 2107.64,-123.8 2107.64,-123.8 1448.78,-123.8 1448.78,-123.8"/>
<polygon fill="black" stroke="black" points="1448.78,-120.3 1438.78,-123.8 1448.78,-127.3 1448.78,-120.3"/>
</g>
<!-- ErrorDialogSimpleComponent -->
<g id="node6" class="node">
<title>ErrorDialogSimpleComponent</title>
<polygon fill="#ffffb3" stroke="black" points="2084.14,-84.8 1895.86,-84.8 1895.86,-48.8 2084.14,-48.8 2084.14,-84.8"/>
<text text-anchor="middle" x="1990" y="-62.6" font-family="Times,serif" font-size="14.00">ErrorDialogSimpleComponent</text>
</g>
<!-- ErrorDialogSimpleComponent&#45;&gt;FormbuilderModule -->
<g id="edge6" class="edge">
<title>ErrorDialogSimpleComponent&#45;&gt;FormbuilderModule</title>
<path fill="none" stroke="black" d="M1915.54,-84.81C1915.54,-100.85 1915.54,-121.8 1915.54,-121.8 1915.54,-121.8 1448.78,-121.8 1448.78,-121.8"/>
<polygon fill="black" stroke="black" points="1448.78,-118.3 1438.78,-121.8 1448.78,-125.3 1448.78,-118.3"/>
</g>
<!-- FileInputComponent -->
<g id="node7" class="node">
<title>FileInputComponent</title>
<polygon fill="#ffffb3" stroke="black" points="1877.16,-84.8 1744.84,-84.8 1744.84,-48.8 1877.16,-48.8 1877.16,-84.8"/>
<text text-anchor="middle" x="1811" y="-62.6" font-family="Times,serif" font-size="14.00">FileInputComponent</text>
</g>
<!-- FileInputComponent&#45;&gt;FormbuilderModule -->
<g id="edge7" class="edge">
<title>FileInputComponent&#45;&gt;FormbuilderModule</title>
<path fill="none" stroke="black" d="M1760.88,-84.99C1760.88,-99.98 1760.88,-118.8 1760.88,-118.8 1760.88,-118.8 1448.75,-118.8 1448.75,-118.8"/>
<polygon fill="black" stroke="black" points="1448.75,-115.3 1438.75,-118.8 1448.75,-122.3 1448.75,-115.3"/>
</g>
<!-- FormbuilderComponent -->
<g id="node8" class="node">
<title>FormbuilderComponent</title>
<polygon fill="#ffffb3" stroke="black" points="1726.82,-84.8 1575.18,-84.8 1575.18,-48.8 1726.82,-48.8 1726.82,-84.8"/>
<text text-anchor="middle" x="1651" y="-62.6" font-family="Times,serif" font-size="14.00">FormbuilderComponent</text>
</g>
<!-- FormbuilderComponent&#45;&gt;FormbuilderModule -->
<g id="edge8" class="edge">
<title>FormbuilderComponent&#45;&gt;FormbuilderModule</title>
<path fill="none" stroke="black" d="M1599.38,-84.85C1599.38,-99.17 1599.38,-116.8 1599.38,-116.8 1599.38,-116.8 1448.58,-116.8 1448.58,-116.8"/>
<polygon fill="black" stroke="black" points="1448.58,-113.3 1438.58,-116.8 1448.58,-120.3 1448.58,-113.3"/>
</g>
<!-- InfoDialogSimpleComponent -->
<g id="node9" class="node">
<title>InfoDialogSimpleComponent</title>
<polygon fill="#ffffb3" stroke="black" points="1557.43,-84.8 1374.57,-84.8 1374.57,-48.8 1557.43,-48.8 1557.43,-84.8"/>
<text text-anchor="middle" x="1466" y="-62.6" font-family="Times,serif" font-size="14.00">InfoDialogSimpleComponent</text>
</g>
<!-- InfoDialogSimpleComponent&#45;&gt;FormbuilderModule -->
<g id="edge9" class="edge">
<title>InfoDialogSimpleComponent&#45;&gt;FormbuilderModule</title>
<path fill="none" stroke="black" d="M1406.78,-84.91C1406.78,-84.91 1406.78,-103.79 1406.78,-103.79"/>
<polygon fill="black" stroke="black" points="1403.28,-103.79 1406.78,-113.79 1410.28,-103.79 1403.28,-103.79"/>
</g>
<!-- RadiobuttonComponent -->
<g id="node10" class="node">
<title>RadiobuttonComponent</title>
<polygon fill="#ffffb3" stroke="black" points="1357.06,-84.8 1206.94,-84.8 1206.94,-48.8 1357.06,-48.8 1357.06,-84.8"/>
<text text-anchor="middle" x="1282" y="-62.6" font-family="Times,serif" font-size="14.00">RadiobuttonComponent</text>
</g>
<!-- RadiobuttonComponent&#45;&gt;FormbuilderModule -->
<g id="edge10" class="edge">
<title>RadiobuttonComponent&#45;&gt;FormbuilderModule</title>
<path fill="none" stroke="black" d="M1333.25,-84.91C1333.25,-84.91 1333.25,-103.79 1333.25,-103.79"/>
<polygon fill="black" stroke="black" points="1329.75,-103.79 1333.25,-113.79 1336.75,-103.79 1329.75,-103.79"/>
</g>
<!-- SelectComponent -->
<g id="node11" class="node">
<title>SelectComponent</title>
<polygon fill="#ffffb3" stroke="black" points="1188.54,-84.8 1073.46,-84.8 1073.46,-48.8 1188.54,-48.8 1188.54,-84.8"/>
<text text-anchor="middle" x="1131" y="-62.6" font-family="Times,serif" font-size="14.00">SelectComponent</text>
</g>
<!-- SelectComponent&#45;&gt;FormbuilderModule -->
<g id="edge11" class="edge">
<title>SelectComponent&#45;&gt;FormbuilderModule</title>
<path fill="none" stroke="black" d="M1174.12,-84.85C1174.12,-99.17 1174.12,-116.8 1174.12,-116.8 1174.12,-116.8 1299.38,-116.8 1299.38,-116.8"/>
<polygon fill="black" stroke="black" points="1299.38,-120.3 1309.38,-116.8 1299.38,-113.3 1299.38,-120.3"/>
</g>
<!-- SlideToggleComponent -->
<g id="node12" class="node">
<title>SlideToggleComponent</title>
<polygon fill="#ffffb3" stroke="black" points="1054.77,-84.8 905.23,-84.8 905.23,-48.8 1054.77,-48.8 1054.77,-84.8"/>
<text text-anchor="middle" x="980" y="-62.6" font-family="Times,serif" font-size="14.00">SlideToggleComponent</text>
</g>
<!-- SlideToggleComponent&#45;&gt;FormbuilderModule -->
<g id="edge12" class="edge">
<title>SlideToggleComponent&#45;&gt;FormbuilderModule</title>
<path fill="none" stroke="black" d="M1021.62,-84.99C1021.62,-99.98 1021.62,-118.8 1021.62,-118.8 1021.62,-118.8 1299.37,-118.8 1299.37,-118.8"/>
<polygon fill="black" stroke="black" points="1299.37,-122.3 1309.37,-118.8 1299.37,-115.3 1299.37,-122.3"/>
</g>
<!-- SliderComponent -->
<g id="node13" class="node">
<title>SliderComponent</title>
<polygon fill="#ffffb3" stroke="black" points="887.27,-84.8 772.73,-84.8 772.73,-48.8 887.27,-48.8 887.27,-84.8"/>
<text text-anchor="middle" x="830" y="-62.6" font-family="Times,serif" font-size="14.00">SliderComponent</text>
</g>
<!-- SliderComponent&#45;&gt;FormbuilderModule -->
<g id="edge13" class="edge">
<title>SliderComponent&#45;&gt;FormbuilderModule</title>
<path fill="none" stroke="black" d="M869.62,-84.81C869.62,-100.85 869.62,-121.8 869.62,-121.8 869.62,-121.8 1299.35,-121.8 1299.35,-121.8"/>
<polygon fill="black" stroke="black" points="1299.35,-125.3 1309.35,-121.8 1299.35,-118.3 1299.35,-125.3"/>
</g>
<!-- TableComponent -->
<g id="node14" class="node">
<title>TableComponent</title>
<polygon fill="#ffffb3" stroke="black" points="754.7,-84.8 641.3,-84.8 641.3,-48.8 754.7,-48.8 754.7,-84.8"/>
<text text-anchor="middle" x="698" y="-62.6" font-family="Times,serif" font-size="14.00">TableComponent</text>
</g>
<!-- TableComponent&#45;&gt;FormbuilderModule -->
<g id="edge14" class="edge">
<title>TableComponent&#45;&gt;FormbuilderModule</title>
<path fill="none" stroke="black" d="M736.12,-84.84C736.12,-101.53 736.12,-123.8 736.12,-123.8 736.12,-123.8 1299.33,-123.8 1299.33,-123.8"/>
<polygon fill="black" stroke="black" points="1299.33,-127.3 1309.33,-123.8 1299.33,-120.3 1299.33,-127.3"/>
</g>
<!-- TextInputComponent -->
<g id="node15" class="node">
<title>TextInputComponent</title>
<polygon fill="#ffffb3" stroke="black" points="623.04,-84.8 486.96,-84.8 486.96,-48.8 623.04,-48.8 623.04,-84.8"/>
<text text-anchor="middle" x="555" y="-62.6" font-family="Times,serif" font-size="14.00">TextInputComponent</text>
</g>
<!-- TextInputComponent&#45;&gt;FormbuilderModule -->
<g id="edge15" class="edge">
<title>TextInputComponent&#45;&gt;FormbuilderModule</title>
<path fill="none" stroke="black" d="M591.62,-84.82C591.62,-102.17 591.62,-125.8 591.62,-125.8 591.62,-125.8 1299.31,-125.8 1299.31,-125.8"/>
<polygon fill="black" stroke="black" points="1299.31,-129.3 1309.31,-125.8 1299.31,-122.3 1299.31,-129.3"/>
</g>
<!-- TranslatePipe -->
<g id="node16" class="node">
<title>TranslatePipe</title>
<polygon fill="#ffffb3" stroke="black" points="468.47,-84.8 375.53,-84.8 375.53,-48.8 468.47,-48.8 468.47,-84.8"/>
<text text-anchor="middle" x="422" y="-62.6" font-family="Times,serif" font-size="14.00">TranslatePipe</text>
</g>
<!-- TranslatePipe&#45;&gt;FormbuilderModule -->
<g id="edge16" class="edge">
<title>TranslatePipe&#45;&gt;FormbuilderModule</title>
<path fill="none" stroke="black" d="M457.12,-85.07C457.12,-103.36 457.12,-128.8 457.12,-128.8 457.12,-128.8 1299.16,-128.8 1299.16,-128.8"/>
<polygon fill="black" stroke="black" points="1299.16,-132.3 1309.16,-128.8 1299.16,-125.3 1299.16,-132.3"/>
</g>
<!-- AutocompleteComponent  -->
<g id="node18" class="node">
<title>AutocompleteComponent </title>
<polygon fill="#fb8072" stroke="black" points="2277.15,-214.8 2112.85,-214.8 2112.85,-178.8 2277.15,-178.8 2277.15,-214.8"/>
<text text-anchor="middle" x="2195" y="-192.6" font-family="Times,serif" font-size="14.00">AutocompleteComponent </text>
</g>
<!-- FormbuilderModule&#45;&gt;AutocompleteComponent  -->
<g id="edge17" class="edge">
<title>FormbuilderModule&#45;&gt;AutocompleteComponent </title>
<path fill="none" stroke="black" stroke-dasharray="5,2" d="M1438.64,-135.8C1629.33,-135.8 2176.29,-135.8 2176.29,-135.8 2176.29,-135.8 2176.29,-168.5 2176.29,-168.5"/>
<polygon fill="black" stroke="black" points="2172.79,-168.5 2176.29,-178.5 2179.79,-168.5 2172.79,-168.5"/>
</g>
<!-- CheckboxComponent  -->
<g id="node19" class="node">
<title>CheckboxComponent </title>
<polygon fill="#fb8072" stroke="black" points="2094.6,-214.8 1953.4,-214.8 1953.4,-178.8 2094.6,-178.8 2094.6,-214.8"/>
<text text-anchor="middle" x="2024" y="-192.6" font-family="Times,serif" font-size="14.00">CheckboxComponent </text>
</g>
<!-- FormbuilderModule&#45;&gt;CheckboxComponent  -->
<g id="edge18" class="edge">
<title>FormbuilderModule&#45;&gt;CheckboxComponent </title>
<path fill="none" stroke="black" stroke-dasharray="5,2" d="M1438.77,-137.8C1602.28,-137.8 2018.76,-137.8 2018.76,-137.8 2018.76,-137.8 2018.76,-168.78 2018.76,-168.78"/>
<polygon fill="black" stroke="black" points="2015.26,-168.78 2018.76,-178.78 2022.26,-168.78 2015.26,-168.78"/>
</g>
<!-- DateInputComponent  -->
<g id="node20" class="node">
<title>DateInputComponent </title>
<polygon fill="#fb8072" stroke="black" points="1935.31,-214.8 1794.69,-214.8 1794.69,-178.8 1935.31,-178.8 1935.31,-214.8"/>
<text text-anchor="middle" x="1865" y="-192.6" font-family="Times,serif" font-size="14.00">DateInputComponent </text>
</g>
<!-- FormbuilderModule&#45;&gt;DateInputComponent  -->
<g id="edge19" class="edge">
<title>FormbuilderModule&#45;&gt;DateInputComponent </title>
<path fill="none" stroke="black" stroke-dasharray="5,2" d="M1438.72,-140.8C1565.86,-140.8 1835.96,-140.8 1835.96,-140.8 1835.96,-140.8 1835.96,-168.77 1835.96,-168.77"/>
<polygon fill="black" stroke="black" points="1832.46,-168.77 1835.96,-178.77 1839.46,-168.77 1832.46,-168.77"/>
</g>
<!-- FileInputComponent  -->
<g id="node21" class="node">
<title>FileInputComponent </title>
<polygon fill="#fb8072" stroke="black" points="1777.16,-214.8 1640.84,-214.8 1640.84,-178.8 1777.16,-178.8 1777.16,-214.8"/>
<text text-anchor="middle" x="1709" y="-192.6" font-family="Times,serif" font-size="14.00">FileInputComponent </text>
</g>
<!-- FormbuilderModule&#45;&gt;FileInputComponent  -->
<g id="edge20" class="edge">
<title>FormbuilderModule&#45;&gt;FileInputComponent </title>
<path fill="none" stroke="black" stroke-dasharray="5,2" d="M1438.57,-142.8C1529.36,-142.8 1683.79,-142.8 1683.79,-142.8 1683.79,-142.8 1683.79,-168.52 1683.79,-168.52"/>
<polygon fill="black" stroke="black" points="1680.29,-168.52 1683.79,-178.52 1687.29,-168.52 1680.29,-168.52"/>
</g>
<!-- FormbuilderComponent  -->
<g id="node22" class="node">
<title>FormbuilderComponent </title>
<polygon fill="#fb8072" stroke="black" points="1623.32,-214.8 1468.68,-214.8 1468.68,-178.8 1623.32,-178.8 1623.32,-214.8"/>
<text text-anchor="middle" x="1546" y="-192.6" font-family="Times,serif" font-size="14.00">FormbuilderComponent </text>
</g>
<!-- FormbuilderModule&#45;&gt;FormbuilderComponent  -->
<g id="edge21" class="edge">
<title>FormbuilderModule&#45;&gt;FormbuilderComponent </title>
<path fill="none" stroke="black" stroke-dasharray="5,2" d="M1438.61,-147.8C1468.77,-147.8 1498.13,-147.8 1498.13,-147.8 1498.13,-147.8 1498.13,-168.55 1498.13,-168.55"/>
<polygon fill="black" stroke="black" points="1494.63,-168.55 1498.13,-178.55 1501.63,-168.55 1494.63,-168.55"/>
</g>
<!-- FormbuilderModule&#45;&gt;FormbuilderComponent  -->
<g id="edge29" class="edge">
<title>FormbuilderModule&#45;&gt;FormbuilderComponent </title>
<path fill="none" stroke="black" stroke-dasharray="1,5" d="M1438.73,-145.8C1480.72,-145.8 1527.67,-145.8 1527.67,-145.8 1527.67,-145.8 1527.67,-168.68 1527.67,-168.68"/>
<polygon fill="black" stroke="black" points="1524.17,-168.68 1527.67,-178.68 1531.17,-168.68 1524.17,-168.68"/>
</g>
<!-- RadiobuttonComponent  -->
<g id="node23" class="node">
<title>RadiobuttonComponent </title>
<polygon fill="#fb8072" stroke="black" points="1451.06,-214.8 1296.94,-214.8 1296.94,-178.8 1451.06,-178.8 1451.06,-214.8"/>
<text text-anchor="middle" x="1374" y="-192.6" font-family="Times,serif" font-size="14.00">RadiobuttonComponent </text>
</g>
<!-- FormbuilderModule&#45;&gt;RadiobuttonComponent  -->
<g id="edge22" class="edge">
<title>FormbuilderModule&#45;&gt;RadiobuttonComponent </title>
<path fill="none" stroke="black" stroke-dasharray="5,2" d="M1374,-149.91C1374,-149.91 1374,-168.79 1374,-168.79"/>
<polygon fill="black" stroke="black" points="1370.5,-168.79 1374,-178.79 1377.5,-168.79 1370.5,-168.79"/>
</g>
<!-- SelectComponent  -->
<g id="node24" class="node">
<title>SelectComponent </title>
<polygon fill="#fb8072" stroke="black" points="1278.54,-214.8 1159.46,-214.8 1159.46,-178.8 1278.54,-178.8 1278.54,-214.8"/>
<text text-anchor="middle" x="1219" y="-192.6" font-family="Times,serif" font-size="14.00">SelectComponent </text>
</g>
<!-- FormbuilderModule&#45;&gt;SelectComponent  -->
<g id="edge23" class="edge">
<title>FormbuilderModule&#45;&gt;SelectComponent </title>
<path fill="none" stroke="black" stroke-dasharray="5,2" d="M1309.08,-147.8C1275.98,-147.8 1242.62,-147.8 1242.62,-147.8 1242.62,-147.8 1242.62,-168.55 1242.62,-168.55"/>
<polygon fill="black" stroke="black" points="1239.12,-168.55 1242.62,-178.55 1246.12,-168.55 1239.12,-168.55"/>
</g>
<!-- SlideToggleComponent  -->
<g id="node25" class="node">
<title>SlideToggleComponent </title>
<polygon fill="#fb8072" stroke="black" points="1141.77,-214.8 988.23,-214.8 988.23,-178.8 1141.77,-178.8 1141.77,-214.8"/>
<text text-anchor="middle" x="1065" y="-192.6" font-family="Times,serif" font-size="14.00">SlideToggleComponent </text>
</g>
<!-- FormbuilderModule&#45;&gt;SlideToggleComponent  -->
<g id="edge24" class="edge">
<title>FormbuilderModule&#45;&gt;SlideToggleComponent </title>
<path fill="none" stroke="black" stroke-dasharray="5,2" d="M1309.13,-145.8C1230.23,-145.8 1107.43,-145.8 1107.43,-145.8 1107.43,-145.8 1107.43,-168.68 1107.43,-168.68"/>
<polygon fill="black" stroke="black" points="1103.93,-168.68 1107.43,-178.68 1110.93,-168.68 1103.93,-168.68"/>
</g>
<!-- SliderComponent  -->
<g id="node26" class="node">
<title>SliderComponent </title>
<polygon fill="#fb8072" stroke="black" points="970.27,-214.8 851.73,-214.8 851.73,-178.8 970.27,-178.8 970.27,-214.8"/>
<text text-anchor="middle" x="911" y="-192.6" font-family="Times,serif" font-size="14.00">SliderComponent </text>
</g>
<!-- FormbuilderModule&#45;&gt;SliderComponent  -->
<g id="edge25" class="edge">
<title>FormbuilderModule&#45;&gt;SliderComponent </title>
<path fill="none" stroke="black" stroke-dasharray="5,2" d="M1309.14,-142.8C1187.58,-142.8 937.63,-142.8 937.63,-142.8 937.63,-142.8 937.63,-168.52 937.63,-168.52"/>
<polygon fill="black" stroke="black" points="934.13,-168.52 937.63,-178.52 941.13,-168.52 934.13,-168.52"/>
</g>
<!-- TableComponent  -->
<g id="node27" class="node">
<title>TableComponent </title>
<polygon fill="#fb8072" stroke="black" points="834.21,-214.8 717.79,-214.8 717.79,-178.8 834.21,-178.8 834.21,-214.8"/>
<text text-anchor="middle" x="776" y="-192.6" font-family="Times,serif" font-size="14.00">TableComponent </text>
</g>
<!-- FormbuilderModule&#45;&gt;TableComponent  -->
<g id="edge26" class="edge">
<title>FormbuilderModule&#45;&gt;TableComponent </title>
<path fill="none" stroke="black" stroke-dasharray="5,2" d="M1309.39,-140.8C1160.02,-140.8 803.48,-140.8 803.48,-140.8 803.48,-140.8 803.48,-168.77 803.48,-168.77"/>
<polygon fill="black" stroke="black" points="799.98,-168.77 803.48,-178.77 806.98,-168.77 799.98,-168.77"/>
</g>
<!-- TextInputComponent  -->
<g id="node28" class="node">
<title>TextInputComponent </title>
<polygon fill="#fb8072" stroke="black" points="700.04,-214.8 559.96,-214.8 559.96,-178.8 700.04,-178.8 700.04,-214.8"/>
<text text-anchor="middle" x="630" y="-192.6" font-family="Times,serif" font-size="14.00">TextInputComponent </text>
</g>
<!-- FormbuilderModule&#45;&gt;TextInputComponent  -->
<g id="edge27" class="edge">
<title>FormbuilderModule&#45;&gt;TextInputComponent </title>
<path fill="none" stroke="black" stroke-dasharray="5,2" d="M1309.41,-137.8C1135.55,-137.8 670.71,-137.8 670.71,-137.8 670.71,-137.8 670.71,-168.78 670.71,-168.78"/>
<polygon fill="black" stroke="black" points="667.21,-168.78 670.71,-178.78 674.21,-168.78 667.21,-168.78"/>
</g>
<!-- TranslatePipe  -->
<g id="node29" class="node">
<title>TranslatePipe </title>
<polygon fill="#fb8072" stroke="black" points="542.47,-214.8 445.53,-214.8 445.53,-178.8 542.47,-178.8 542.47,-214.8"/>
<text text-anchor="middle" x="494" y="-192.6" font-family="Times,serif" font-size="14.00">TranslatePipe </text>
</g>
<!-- FormbuilderModule&#45;&gt;TranslatePipe  -->
<g id="edge28" class="edge">
<title>FormbuilderModule&#45;&gt;TranslatePipe </title>
<path fill="none" stroke="black" stroke-dasharray="5,2" d="M1309.4,-135.8C1109.51,-135.8 514.48,-135.8 514.48,-135.8 514.48,-135.8 514.48,-168.5 514.48,-168.5"/>
<polygon fill="black" stroke="black" points="510.98,-168.5 514.48,-178.5 517.98,-168.5 510.98,-168.5"/>
</g>
<!-- ConfigService -->
<g id="node30" class="node">
<title>ConfigService</title>
<ellipse fill="#fdb462" stroke="black" cx="285" cy="-66.8" rx="66.63" ry="18"/>
<text text-anchor="middle" x="285" y="-62.6" font-family="Times,serif" font-size="14.00">ConfigService</text>
</g>
<!-- ConfigService&#45;&gt;FormbuilderModule -->
<g id="edge30" class="edge">
<title>ConfigService&#45;&gt;FormbuilderModule</title>
<path fill="none" stroke="black" d="M285,-84.97C285,-103.89 285,-130.8 285,-130.8 285,-130.8 1299.14,-130.8 1299.14,-130.8"/>
<polygon fill="black" stroke="black" points="1299.14,-134.3 1309.14,-130.8 1299.14,-127.3 1299.14,-134.3"/>
</g>
<!-- DataFlattnerService -->
<g id="node31" class="node">
<title>DataFlattnerService</title>
<ellipse fill="#fdb462" stroke="black" cx="112" cy="-66.8" rx="88.01" ry="18"/>
<text text-anchor="middle" x="112" y="-62.6" font-family="Times,serif" font-size="14.00">DataFlattnerService</text>
</g>
<!-- DataFlattnerService&#45;&gt;FormbuilderModule -->
<g id="edge31" class="edge">
<title>DataFlattnerService&#45;&gt;FormbuilderModule</title>
<path fill="none" stroke="black" d="M112,-85.11C112,-104.95 112,-133.8 112,-133.8 112,-133.8 1299.25,-133.8 1299.25,-133.8"/>
<polygon fill="black" stroke="black" points="1299.25,-137.3 1309.25,-133.8 1299.25,-130.3 1299.25,-137.3"/>
</g>
</g>
</svg>
