<?xml version="1.0" encoding="UTF-8" standalone="no"?>
<!DOCTYPE svg PUBLIC "-//W3C//DTD SVG 1.1//EN"
 "http://www.w3.org/Graphics/SVG/1.1/DTD/svg11.dtd">
<!-- Generated by graphviz version 2.47.3 (20210619.1520)
 -->
<!-- Title: dependencies Pages: 1 -->
<svg width="2594pt" height="247pt"
 viewBox="0.00 0.00 2594.00 246.80" xmlns="http://www.w3.org/2000/svg" xmlns:xlink="http://www.w3.org/1999/xlink">
<g id="graph0" class="graph" transform="scale(1 1) rotate(0) translate(4 242.8)">
<title>dependencies</title>
<polygon fill="white" stroke="transparent" points="-4,4 -4,-242.8 2590,-242.8 2590,4 -4,4"/>
<text text-anchor="middle" x="1293" y="-8.2" font-family="sans-serif" font-size="14.00">dependencies</text>
<g id="clust1" class="cluster">
<title>cluster_FormbuilderModule</title>
<polygon fill="none" stroke="black" stroke-dasharray="1,5" points="8,-32.8 8,-230.8 2578,-230.8 2578,-32.8 8,-32.8"/>
</g>
<g id="clust2" class="cluster">
<title>cluster_FormbuilderModule_declarations</title>
<polygon fill="none" stroke="black" points="16,-40.8 16,-92.8 2570,-92.8 2570,-40.8 16,-40.8"/>
</g>
<g id="clust20" class="cluster">
<title>cluster_FormbuilderModule_exports</title>
<polygon fill="none" stroke="black" points="298,-170.8 298,-222.8 2031,-222.8 2031,-170.8 298,-170.8"/>
</g>
<!-- AutocompleteComponent -->
<g id="node1" class="node">
<title>AutocompleteComponent</title>
<polygon fill="#ffffb3" stroke="black" points="2562.15,-84.8 2401.85,-84.8 2401.85,-48.8 2562.15,-48.8 2562.15,-84.8"/>
<text text-anchor="middle" x="2482" y="-62.6" font-family="Times,serif" font-size="14.00">AutocompleteComponent</text>
</g>
<!-- FormbuilderModule -->
<g id="node17" class="node">
<title>FormbuilderModule</title>
<polygon fill="#8dd3c7" stroke="black" points="1270.54,-149.8 1267.54,-153.8 1246.54,-153.8 1243.54,-149.8 1141.46,-149.8 1141.46,-113.8 1270.54,-113.8 1270.54,-149.8"/>
<text text-anchor="middle" x="1206" y="-127.6" font-family="Times,serif" font-size="14.00">FormbuilderModule</text>
</g>
<!-- AutocompleteComponent&#45;&gt;FormbuilderModule -->
<g id="edge1" class="edge">
<title>AutocompleteComponent&#45;&gt;FormbuilderModule</title>
<path fill="none" stroke="black" d="M2482,-85.02C2482,-105.17 2482,-134.8 2482,-134.8 2482,-134.8 1280.59,-134.8 1280.59,-134.8"/>
<polygon fill="black" stroke="black" points="1280.59,-131.3 1270.59,-134.8 1280.59,-138.3 1280.59,-131.3"/>
</g>
<!-- BaseFieldComponent -->
<g id="node2" class="node">
<title>BaseFieldComponent</title>
<polygon fill="#ffffb3" stroke="black" points="2383.82,-84.8 2246.18,-84.8 2246.18,-48.8 2383.82,-48.8 2383.82,-84.8"/>
<text text-anchor="middle" x="2315" y="-62.6" font-family="Times,serif" font-size="14.00">BaseFieldComponent</text>
</g>
<!-- BaseFieldComponent&#45;&gt;FormbuilderModule -->
<g id="edge2" class="edge">
<title>BaseFieldComponent&#45;&gt;FormbuilderModule</title>
<path fill="none" stroke="black" d="M2315,-84.91C2315,-104.14 2315,-131.8 2315,-131.8 2315,-131.8 1280.82,-131.8 1280.82,-131.8"/>
<polygon fill="black" stroke="black" points="1280.82,-128.3 1270.82,-131.8 1280.82,-135.3 1280.82,-128.3"/>
</g>
<!-- CheckboxComponent -->
<g id="node3" class="node">
<title>CheckboxComponent</title>
<polygon fill="#ffffb3" stroke="black" points="2228.1,-84.8 2089.9,-84.8 2089.9,-48.8 2228.1,-48.8 2228.1,-84.8"/>
<text text-anchor="middle" x="2159" y="-62.6" font-family="Times,serif" font-size="14.00">CheckboxComponent</text>
</g>
<!-- CheckboxComponent&#45;&gt;FormbuilderModule -->
<g id="edge3" class="edge">
<title>CheckboxComponent&#45;&gt;FormbuilderModule</title>
<path fill="none" stroke="black" d="M2159,-85.07C2159,-103.36 2159,-128.8 2159,-128.8 2159,-128.8 1280.75,-128.8 1280.75,-128.8"/>
<polygon fill="black" stroke="black" points="1280.75,-125.3 1270.75,-128.8 1280.75,-132.3 1280.75,-125.3"/>
</g>
<!-- ConfirmDialogComponent -->
<g id="node4" class="node">
<title>ConfirmDialogComponent</title>
<polygon fill="#ffffb3" stroke="black" points="2072.37,-84.8 1905.63,-84.8 1905.63,-48.8 2072.37,-48.8 2072.37,-84.8"/>
<text text-anchor="middle" x="1989" y="-62.6" font-family="Times,serif" font-size="14.00">ConfirmDialogComponent</text>
</g>
<!-- ConfirmDialogComponent&#45;&gt;FormbuilderModule -->
<g id="edge4" class="edge">
<title>ConfirmDialogComponent&#45;&gt;FormbuilderModule</title>
<path fill="none" stroke="black" d="M1964.32,-84.82C1964.32,-102.17 1964.32,-125.8 1964.32,-125.8 1964.32,-125.8 1280.65,-125.8 1280.65,-125.8"/>
<polygon fill="black" stroke="black" points="1280.65,-122.3 1270.65,-125.8 1280.65,-129.3 1280.65,-122.3"/>
</g>
<!-- DateInputComponent -->
<g id="node5" class="node">
<title>DateInputComponent</title>
<polygon fill="#ffffb3" stroke="black" points="1887.81,-84.8 1750.19,-84.8 1750.19,-48.8 1887.81,-48.8 1887.81,-84.8"/>
<text text-anchor="middle" x="1819" y="-62.6" font-family="Times,serif" font-size="14.00">DateInputComponent</text>
</g>
<!-- DateInputComponent&#45;&gt;FormbuilderModule -->
<g id="edge5" class="edge">
<title>DateInputComponent&#45;&gt;FormbuilderModule</title>
<path fill="none" stroke="black" d="M1795.57,-84.83C1795.57,-101.2 1795.57,-122.8 1795.57,-122.8 1795.57,-122.8 1280.78,-122.8 1280.78,-122.8"/>
<polygon fill="black" stroke="black" points="1280.78,-119.3 1270.78,-122.8 1280.78,-126.3 1280.78,-119.3"/>
</g>
<!-- ErrorDialogSimpleComponent -->
<g id="node6" class="node">
<title>ErrorDialogSimpleComponent</title>
<polygon fill="#ffffb3" stroke="black" points="1732.14,-84.8 1543.86,-84.8 1543.86,-48.8 1732.14,-48.8 1732.14,-84.8"/>
<text text-anchor="middle" x="1638" y="-62.6" font-family="Times,serif" font-size="14.00">ErrorDialogSimpleComponent</text>
</g>
<!-- ErrorDialogSimpleComponent&#45;&gt;FormbuilderModule -->
<g id="edge6" class="edge">
<title>ErrorDialogSimpleComponent&#45;&gt;FormbuilderModule</title>
<path fill="none" stroke="black" d="M1589.59,-85.04C1589.59,-100.37 1589.59,-119.8 1589.59,-119.8 1589.59,-119.8 1280.64,-119.8 1280.64,-119.8"/>
<polygon fill="black" stroke="black" points="1280.64,-116.3 1270.64,-119.8 1280.64,-123.3 1280.64,-116.3"/>
</g>
<!-- FileInputComponent -->
<g id="node7" class="node">
<title>FileInputComponent</title>
<polygon fill="#ffffb3" stroke="black" points="1525.16,-84.8 1392.84,-84.8 1392.84,-48.8 1525.16,-48.8 1525.16,-84.8"/>
<text text-anchor="middle" x="1459" y="-62.6" font-family="Times,serif" font-size="14.00">FileInputComponent</text>
</g>
<!-- FileInputComponent&#45;&gt;FormbuilderModule -->
<g id="edge7" class="edge">
<title>FileInputComponent&#45;&gt;FormbuilderModule</title>
<path fill="none" stroke="black" d="M1436.14,-84.85C1436.14,-99.17 1436.14,-116.8 1436.14,-116.8 1436.14,-116.8 1280.72,-116.8 1280.72,-116.8"/>
<polygon fill="black" stroke="black" points="1280.72,-113.3 1270.72,-116.8 1280.72,-120.3 1280.72,-113.3"/>
</g>
<!-- FormbuilderComponent -->
<g id="node8" class="node">
<title>FormbuilderComponent</title>
<polygon fill="#ffffb3" stroke="black" points="1374.82,-84.8 1223.18,-84.8 1223.18,-48.8 1374.82,-48.8 1374.82,-84.8"/>
<text text-anchor="middle" x="1299" y="-62.6" font-family="Times,serif" font-size="14.00">FormbuilderComponent</text>
</g>
<!-- FormbuilderComponent&#45;&gt;FormbuilderModule -->
<g id="edge8" class="edge">
<title>FormbuilderComponent&#45;&gt;FormbuilderModule</title>
<path fill="none" stroke="black" d="M1247.05,-84.91C1247.05,-84.91 1247.05,-103.79 1247.05,-103.79"/>
<polygon fill="black" stroke="black" points="1243.55,-103.79 1247.05,-113.79 1250.55,-103.79 1243.55,-103.79"/>
</g>
<!-- InfoDialogSimpleComponent -->
<g id="node9" class="node">
<title>InfoDialogSimpleComponent</title>
<polygon fill="#ffffb3" stroke="black" points="1205.43,-84.8 1022.57,-84.8 1022.57,-48.8 1205.43,-48.8 1205.43,-84.8"/>
<text text-anchor="middle" x="1114" y="-62.6" font-family="Times,serif" font-size="14.00">InfoDialogSimpleComponent</text>
</g>
<!-- InfoDialogSimpleComponent&#45;&gt;FormbuilderModule -->
<g id="edge9" class="edge">
<title>InfoDialogSimpleComponent&#45;&gt;FormbuilderModule</title>
<path fill="none" stroke="black" d="M1173.22,-84.91C1173.22,-84.91 1173.22,-103.79 1173.22,-103.79"/>
<polygon fill="black" stroke="black" points="1169.72,-103.79 1173.22,-113.79 1176.72,-103.79 1169.72,-103.79"/>
</g>
<!-- RadiobuttonComponent -->
<g id="node10" class="node">
<title>RadiobuttonComponent</title>
<polygon fill="#ffffb3" stroke="black" points="1005.06,-84.8 854.94,-84.8 854.94,-48.8 1005.06,-48.8 1005.06,-84.8"/>
<text text-anchor="middle" x="930" y="-62.6" font-family="Times,serif" font-size="14.00">RadiobuttonComponent</text>
</g>
<!-- RadiobuttonComponent&#45;&gt;FormbuilderModule -->
<g id="edge10" class="edge">
<title>RadiobuttonComponent&#45;&gt;FormbuilderModule</title>
<path fill="none" stroke="black" d="M955.38,-84.85C955.38,-99.17 955.38,-116.8 955.38,-116.8 955.38,-116.8 1131.46,-116.8 1131.46,-116.8"/>
<polygon fill="black" stroke="black" points="1131.46,-120.3 1141.46,-116.8 1131.46,-113.3 1131.46,-120.3"/>
</g>
<!-- SelectComponent -->
<g id="node11" class="node">
<title>SelectComponent</title>
<polygon fill="#ffffb3" stroke="black" points="836.54,-84.8 721.46,-84.8 721.46,-48.8 836.54,-48.8 836.54,-84.8"/>
<text text-anchor="middle" x="779" y="-62.6" font-family="Times,serif" font-size="14.00">SelectComponent</text>
</g>
<!-- SelectComponent&#45;&gt;FormbuilderModule -->
<g id="edge11" class="edge">
<title>SelectComponent&#45;&gt;FormbuilderModule</title>
<path fill="none" stroke="black" d="M785.57,-85.04C785.57,-100.37 785.57,-119.8 785.57,-119.8 785.57,-119.8 1131.23,-119.8 1131.23,-119.8"/>
<polygon fill="black" stroke="black" points="1131.23,-123.3 1141.23,-119.8 1131.23,-116.3 1131.23,-123.3"/>
</g>
<!-- SlideToggleComponent -->
<g id="node12" class="node">
<title>SlideToggleComponent</title>
<polygon fill="#ffffb3" stroke="black" points="702.77,-84.8 553.23,-84.8 553.23,-48.8 702.77,-48.8 702.77,-84.8"/>
<text text-anchor="middle" x="628" y="-62.6" font-family="Times,serif" font-size="14.00">SlideToggleComponent</text>
</g>
<!-- SlideToggleComponent&#45;&gt;FormbuilderModule -->
<g id="edge12" class="edge">
<title>SlideToggleComponent&#45;&gt;FormbuilderModule</title>
<path fill="none" stroke="black" d="M650.37,-84.83C650.37,-101.2 650.37,-122.8 650.37,-122.8 650.37,-122.8 1131.45,-122.8 1131.45,-122.8"/>
<polygon fill="black" stroke="black" points="1131.45,-126.3 1141.45,-122.8 1131.45,-119.3 1131.45,-126.3"/>
</g>
<!-- SliderComponent -->
<g id="node13" class="node">
<title>SliderComponent</title>
<polygon fill="#ffffb3" stroke="black" points="535.27,-84.8 420.73,-84.8 420.73,-48.8 535.27,-48.8 535.27,-84.8"/>
<text text-anchor="middle" x="478" y="-62.6" font-family="Times,serif" font-size="14.00">SliderComponent</text>
</g>
<!-- SliderComponent&#45;&gt;FormbuilderModule -->
<g id="edge13" class="edge">
<title>SliderComponent&#45;&gt;FormbuilderModule</title>
<path fill="none" stroke="black" d="M499.52,-84.82C499.52,-102.17 499.52,-125.8 499.52,-125.8 499.52,-125.8 1131.43,-125.8 1131.43,-125.8"/>
<polygon fill="black" stroke="black" points="1131.43,-129.3 1141.43,-125.8 1131.43,-122.3 1131.43,-129.3"/>
</g>
<!-- TableComponent -->
<g id="node14" class="node">
<title>TableComponent</title>
<polygon fill="#ffffb3" stroke="black" points="402.7,-84.8 289.3,-84.8 289.3,-48.8 402.7,-48.8 402.7,-84.8"/>
<text text-anchor="middle" x="346" y="-62.6" font-family="Times,serif" font-size="14.00">TableComponent</text>
</g>
<!-- TableComponent&#45;&gt;FormbuilderModule -->
<g id="edge14" class="edge">
<title>TableComponent&#45;&gt;FormbuilderModule</title>
<path fill="none" stroke="black" d="M354.29,-85.1C354.29,-103.07 354.29,-127.8 354.29,-127.8 354.29,-127.8 1131.28,-127.8 1131.28,-127.8"/>
<polygon fill="black" stroke="black" points="1131.28,-131.3 1141.28,-127.8 1131.28,-124.3 1131.28,-131.3"/>
</g>
<!-- TextInputComponent -->
<g id="node15" class="node">
<title>TextInputComponent</title>
<polygon fill="#ffffb3" stroke="black" points="271.04,-84.8 134.96,-84.8 134.96,-48.8 271.04,-48.8 271.04,-84.8"/>
<text text-anchor="middle" x="203" y="-62.6" font-family="Times,serif" font-size="14.00">TextInputComponent</text>
</g>
<!-- TextInputComponent&#45;&gt;FormbuilderModule -->
<g id="edge15" class="edge">
<title>TextInputComponent&#45;&gt;FormbuilderModule</title>
<path fill="none" stroke="black" d="M203,-84.97C203,-103.89 203,-130.8 203,-130.8 203,-130.8 1131.35,-130.8 1131.35,-130.8"/>
<polygon fill="black" stroke="black" points="1131.35,-134.3 1141.35,-130.8 1131.35,-127.3 1131.35,-134.3"/>
</g>
<!-- TranslatePipe -->
<g id="node16" class="node">
<title>TranslatePipe</title>
<polygon fill="#ffffb3" stroke="black" points="116.47,-84.8 23.53,-84.8 23.53,-48.8 116.47,-48.8 116.47,-84.8"/>
<text text-anchor="middle" x="70" y="-62.6" font-family="Times,serif" font-size="14.00">TranslatePipe</text>
</g>
<!-- TranslatePipe&#45;&gt;FormbuilderModule -->
<g id="edge16" class="edge">
<title>TranslatePipe&#45;&gt;FormbuilderModule</title>
<path fill="none" stroke="black" d="M70,-85.11C70,-104.95 70,-133.8 70,-133.8 70,-133.8 1131.26,-133.8 1131.26,-133.8"/>
<polygon fill="black" stroke="black" points="1131.26,-137.3 1141.26,-133.8 1131.26,-130.3 1131.26,-137.3"/>
</g>
<!-- AutocompleteComponent  -->
<g id="node18" class="node">
<title>AutocompleteComponent </title>
<polygon fill="#fb8072" stroke="black" points="2023.15,-214.8 1858.85,-214.8 1858.85,-178.8 2023.15,-178.8 2023.15,-214.8"/>
<text text-anchor="middle" x="1941" y="-192.6" font-family="Times,serif" font-size="14.00">AutocompleteComponent </text>
</g>
<!-- FormbuilderModule&#45;&gt;AutocompleteComponent  -->
<g id="edge17" class="edge">
<title>FormbuilderModule&#45;&gt;AutocompleteComponent </title>
<path fill="none" stroke="black" stroke-dasharray="5,2" d="M1270.59,-137.8C1438.05,-137.8 1873.29,-137.8 1873.29,-137.8 1873.29,-137.8 1873.29,-168.78 1873.29,-168.78"/>
<polygon fill="black" stroke="black" points="1869.79,-168.78 1873.29,-178.78 1876.79,-168.78 1869.79,-168.78"/>
</g>
<!-- CheckboxComponent  -->
<g id="node19" class="node">
<title>CheckboxComponent </title>
<polygon fill="#fb8072" stroke="black" points="1840.6,-214.8 1699.4,-214.8 1699.4,-178.8 1840.6,-178.8 1840.6,-214.8"/>
<text text-anchor="middle" x="1770" y="-192.6" font-family="Times,serif" font-size="14.00">CheckboxComponent </text>
</g>
<!-- FormbuilderModule&#45;&gt;CheckboxComponent  -->
<g id="edge18" class="edge">
<title>FormbuilderModule&#45;&gt;CheckboxComponent </title>
<path fill="none" stroke="black" stroke-dasharray="5,2" d="M1270.56,-140.8C1407.73,-140.8 1715.76,-140.8 1715.76,-140.8 1715.76,-140.8 1715.76,-168.77 1715.76,-168.77"/>
<polygon fill="black" stroke="black" points="1712.26,-168.77 1715.76,-178.77 1719.26,-168.77 1712.26,-168.77"/>
</g>
<!-- DateInputComponent  -->
<g id="node20" class="node">
<title>DateInputComponent </title>
<polygon fill="#fb8072" stroke="black" points="1681.31,-214.8 1540.69,-214.8 1540.69,-178.8 1681.31,-178.8 1681.31,-214.8"/>
<text text-anchor="middle" x="1611" y="-192.6" font-family="Times,serif" font-size="14.00">DateInputComponent </text>
</g>
<!-- FormbuilderModule&#45;&gt;DateInputComponent  -->
<g id="edge19" class="edge">
<title>FormbuilderModule&#45;&gt;DateInputComponent </title>
<path fill="none" stroke="black" stroke-dasharray="5,2" d="M1270.77,-143.8C1390.75,-143.8 1635.5,-143.8 1635.5,-143.8 1635.5,-143.8 1635.5,-168.56 1635.5,-168.56"/>
<polygon fill="black" stroke="black" points="1632,-168.56 1635.5,-178.56 1639,-168.56 1632,-168.56"/>
</g>
<!-- FileInputComponent  -->
<g id="node21" class="node">
<title>FileInputComponent </title>
<polygon fill="#fb8072" stroke="black" points="1523.16,-214.8 1386.84,-214.8 1386.84,-178.8 1523.16,-178.8 1523.16,-214.8"/>
<text text-anchor="middle" x="1455" y="-192.6" font-family="Times,serif" font-size="14.00">FileInputComponent </text>
</g>
<!-- FormbuilderModule&#45;&gt;FileInputComponent  -->
<g id="edge20" class="edge">
<title>FormbuilderModule&#45;&gt;FileInputComponent </title>
<path fill="none" stroke="black" stroke-dasharray="5,2" d="M1270.84,-146.8C1351.75,-146.8 1479.61,-146.8 1479.61,-146.8 1479.61,-146.8 1479.61,-168.75 1479.61,-168.75"/>
<polygon fill="black" stroke="black" points="1476.11,-168.75 1479.61,-178.75 1483.11,-168.75 1476.11,-168.75"/>
</g>
<!-- FormbuilderComponent  -->
<g id="node22" class="node">
<title>FormbuilderComponent </title>
<polygon fill="#fb8072" stroke="black" points="1369.32,-214.8 1214.68,-214.8 1214.68,-178.8 1369.32,-178.8 1369.32,-214.8"/>
<text text-anchor="middle" x="1292" y="-192.6" font-family="Times,serif" font-size="14.00">FormbuilderComponent </text>
</g>
<!-- FormbuilderModule&#45;&gt;FormbuilderComponent  -->
<g id="edge21" class="edge">
<title>FormbuilderModule&#45;&gt;FormbuilderComponent </title>
<path fill="none" stroke="black" stroke-dasharray="5,2" d="M1233.32,-149.91C1233.32,-149.91 1233.32,-168.79 1233.32,-168.79"/>
<polygon fill="black" stroke="black" points="1229.82,-168.79 1233.32,-178.79 1236.82,-168.79 1229.82,-168.79"/>
</g>
<!-- FormbuilderModule&#45;&gt;FormbuilderComponent  -->
<g id="edge28" class="edge">
<title>FormbuilderModule&#45;&gt;FormbuilderComponent </title>
<path fill="none" stroke="black" stroke-dasharray="1,5" d="M1252.04,-149.91C1252.04,-149.91 1252.04,-168.79 1252.04,-168.79"/>
<polygon fill="black" stroke="black" points="1248.54,-168.79 1252.04,-178.79 1255.54,-168.79 1248.54,-168.79"/>
</g>
<!-- RadiobuttonComponent  -->
<g id="node23" class="node">
<title>RadiobuttonComponent </title>
<polygon fill="#fb8072" stroke="black" points="1197.06,-214.8 1042.94,-214.8 1042.94,-178.8 1197.06,-178.8 1197.06,-214.8"/>
<text text-anchor="middle" x="1120" y="-192.6" font-family="Times,serif" font-size="14.00">RadiobuttonComponent </text>
</g>
<!-- FormbuilderModule&#45;&gt;RadiobuttonComponent  -->
<g id="edge22" class="edge">
<title>FormbuilderModule&#45;&gt;RadiobuttonComponent </title>
<path fill="none" stroke="black" stroke-dasharray="5,2" d="M1169.13,-149.91C1169.13,-149.91 1169.13,-168.79 1169.13,-168.79"/>
<polygon fill="black" stroke="black" points="1165.63,-168.79 1169.13,-178.79 1172.63,-168.79 1165.63,-168.79"/>
</g>
<!-- SelectComponent  -->
<g id="node24" class="node">
<title>SelectComponent </title>
<polygon fill="#fb8072" stroke="black" points="1024.54,-214.8 905.46,-214.8 905.46,-178.8 1024.54,-178.8 1024.54,-214.8"/>
<text text-anchor="middle" x="965" y="-192.6" font-family="Times,serif" font-size="14.00">SelectComponent </text>
</g>
<!-- FormbuilderModule&#45;&gt;SelectComponent  -->
<g id="edge23" class="edge">
<title>FormbuilderModule&#45;&gt;SelectComponent </title>
<path fill="none" stroke="black" stroke-dasharray="5,2" d="M1141.28,-147.8C1085.55,-147.8 1014.03,-147.8 1014.03,-147.8 1014.03,-147.8 1014.03,-168.55 1014.03,-168.55"/>
<polygon fill="black" stroke="black" points="1010.53,-168.55 1014.03,-178.55 1017.53,-168.55 1010.53,-168.55"/>
</g>
<!-- SlideToggleComponent  -->
<g id="node25" class="node">
<title>SlideToggleComponent </title>
<polygon fill="#fb8072" stroke="black" points="887.77,-214.8 734.23,-214.8 734.23,-178.8 887.77,-178.8 887.77,-214.8"/>
<text text-anchor="middle" x="811" y="-192.6" font-family="Times,serif" font-size="14.00">SlideToggleComponent </text>
</g>
<!-- FormbuilderModule&#45;&gt;SlideToggleComponent  -->
<g id="edge24" class="edge">
<title>FormbuilderModule&#45;&gt;SlideToggleComponent </title>
<path fill="none" stroke="black" stroke-dasharray="5,2" d="M1141.44,-144.8C1044.15,-144.8 871.18,-144.8 871.18,-144.8 871.18,-144.8 871.18,-168.61 871.18,-168.61"/>
<polygon fill="black" stroke="black" points="867.68,-168.61 871.18,-178.61 874.68,-168.61 867.68,-168.61"/>
</g>
<!-- SliderComponent  -->
<g id="node26" class="node">
<title>SliderComponent </title>
<polygon fill="#fb8072" stroke="black" points="716.27,-214.8 597.73,-214.8 597.73,-178.8 716.27,-178.8 716.27,-214.8"/>
<text text-anchor="middle" x="657" y="-192.6" font-family="Times,serif" font-size="14.00">SliderComponent </text>
</g>
<!-- FormbuilderModule&#45;&gt;SliderComponent  -->
<g id="edge25" class="edge">
<title>FormbuilderModule&#45;&gt;SliderComponent </title>
<path fill="none" stroke="black" stroke-dasharray="5,2" d="M1141.35,-141.8C1006.89,-141.8 709.51,-141.8 709.51,-141.8 709.51,-141.8 709.51,-168.79 709.51,-168.79"/>
<polygon fill="black" stroke="black" points="706.01,-168.79 709.51,-178.79 713.01,-168.79 706.01,-168.79"/>
</g>
<!-- TableComponent  -->
<g id="node27" class="node">
<title>TableComponent </title>
<polygon fill="#fb8072" stroke="black" points="580.21,-214.8 463.79,-214.8 463.79,-178.8 580.21,-178.8 580.21,-214.8"/>
<text text-anchor="middle" x="522" y="-192.6" font-family="Times,serif" font-size="14.00">TableComponent </text>
</g>
<!-- FormbuilderModule&#45;&gt;TableComponent  -->
<g id="edge26" class="edge">
<title>FormbuilderModule&#45;&gt;TableComponent </title>
<path fill="none" stroke="black" stroke-dasharray="5,2" d="M1141.19,-138.8C978.67,-138.8 566.73,-138.8 566.73,-138.8 566.73,-138.8 566.73,-168.77 566.73,-168.77"/>
<polygon fill="black" stroke="black" points="563.23,-168.77 566.73,-178.77 570.23,-168.77 563.23,-168.77"/>
</g>
<!-- TextInputComponent  -->
<g id="node28" class="node">
<title>TextInputComponent </title>
<polygon fill="#fb8072" stroke="black" points="446.04,-214.8 305.96,-214.8 305.96,-178.8 446.04,-178.8 446.04,-214.8"/>
<text text-anchor="middle" x="376" y="-192.6" font-family="Times,serif" font-size="14.00">TextInputComponent </text>
</g>
<!-- FormbuilderModule&#45;&gt;TextInputComponent  -->
<g id="edge27" class="edge">
<title>FormbuilderModule&#45;&gt;TextInputComponent </title>
<path fill="none" stroke="black" stroke-dasharray="5,2" d="M1141.45,-136.8C955.74,-136.8 433.32,-136.8 433.32,-136.8 433.32,-136.8 433.32,-168.8 433.32,-168.8"/>
<polygon fill="black" stroke="black" points="429.82,-168.8 433.32,-178.8 436.82,-168.8 429.82,-168.8"/>
</g>
</g>
</svg>
